<?xml version="1.0" encoding="utf-8"?>
<!-- Generator: Adobe Illustrator 26.3.0, SVG Export Plug-In . SVG Version: 6.00 Build 0)  -->
<svg version="1.1" id="Capa_1" xmlns="http://www.w3.org/2000/svg" xmlns:xlink="http://www.w3.org/1999/xlink" x="0px" y="0px"
	 viewBox="0 0 400 60" style="enable-background:new 0 0 400 60;" xml:space="preserve">
<style type="text/css">
	.st0{fill:#FF0000;}
</style>
<g>
	<path class="st0" d="M130.2,8.2v4h-2V4h1.8l2.1,3.2L134,4h2v8.1h-2v-4l-1.9,2.8L130.2,8.2z"/>
	<path class="st0" d="M141.2,4l2.5,8.1h-2.1l-0.3-1h-2.4l-0.3,1h-2.1L139,4H141.2z M140.7,9.3l-0.6-2.1l-0.6,2.1H140.7z"/>
	<path class="st0" d="M143.8,8.1c0-1.4,0.3-2.4,0.9-3.1c0.6-0.7,1.5-1,2.7-1c0.2,0,0.5,0,0.7,0s0.5,0.1,0.7,0.1
		c0.2,0,0.4,0.1,0.6,0.1s0.3,0.1,0.4,0.1v1.9c-0.4-0.2-0.9-0.3-1.3-0.4c-0.4-0.1-0.8-0.1-1.1,0c-0.4,0.1-0.8,0.3-1.1,0.6
		S146,7.4,146,8.1c0,0.4,0,0.8,0.1,1c0,0.3,0.1,0.5,0.2,0.6c0.1,0.2,0.3,0.3,0.4,0.3c0.2,0.1,0.4,0.1,0.7,0.1s0.5,0,0.7-0.1
		s0.3-0.1,0.4-0.1l-0.3-1.9h2v3.4c-0.2,0.1-0.4,0.2-0.6,0.3c-0.2,0.1-0.5,0.2-0.7,0.2c-0.3,0.1-0.5,0.1-0.8,0.1c-0.3,0-0.5,0-0.8,0
		c-1.2,0-2.1-0.3-2.7-1S143.8,9.5,143.8,8.1z"/>
	<path class="st0" d="M155.3,4l2.5,8.1h-2.1l-0.3-1H153l-0.3,1h-2.1l2.6-8.1H155.3z M154.8,9.3l-0.6-2.1l-0.6,2.1H154.8z"/>
	<path class="st0" d="M158.2,4h2v6.3h2.5v1.9h-4.6V4z"/>
	<path class="st0" d="M163.6,4h2v6.3h2.5v1.9h-4.6V4z"/>
	<path class="st0" d="M172.8,4l2.5,8.1h-2.1l-0.3-1h-2.4l-0.3,1h-2.1l2.6-8.1H172.8z M172.3,9.3l-0.6-2.1l-0.6,2.1H172.3z"/>
	<path class="st0" d="M175.8,4l2.1,0l2.9,4.4V4h2v8.1h-2l-3-4.4v4.4h-2V4z"/>
	<path class="st0" d="M183.9,4h4.8v1.9H186v1.1h2.5v2H186v1.3h2.8v1.9h-4.8V4z"/>
	<path class="st0" d="M192.5,12.3c-0.7,0-1.4-0.1-1.9-0.4c-0.5-0.3-0.9-0.7-1.2-1.2l1.1-1.5c0.1,0.2,0.3,0.3,0.4,0.5
		s0.3,0.3,0.5,0.4c0.2,0.1,0.4,0.2,0.5,0.2c0.2,0,0.3,0.1,0.5,0.1c0.2,0,0.3,0,0.4-0.1c0.1-0.1,0.2-0.1,0.2-0.2c0-0.1,0-0.2,0-0.3
		c-0.1-0.1-0.1-0.1-0.3-0.2c-0.1-0.1-0.3-0.1-0.4-0.2c-0.2-0.1-0.4-0.1-0.6-0.2c-0.3-0.1-0.6-0.2-0.9-0.4c-0.3-0.1-0.5-0.3-0.7-0.5
		c-0.2-0.2-0.4-0.4-0.5-0.7s-0.2-0.6-0.2-1c0-0.5,0.1-0.9,0.3-1.2c0.2-0.3,0.4-0.6,0.7-0.8c0.3-0.2,0.6-0.3,1-0.4
		c0.4-0.1,0.7-0.1,1.1-0.1c0.6,0,1.2,0.1,1.6,0.3c0.4,0.2,0.8,0.5,1,0.9l-1.1,1.5c-0.2-0.2-0.5-0.4-0.8-0.5C193,6.1,192.7,6,192.5,6
		c-0.2,0-0.3,0-0.4,0.1c-0.1,0.1-0.2,0.2-0.3,0.3c0,0.1,0,0.2,0,0.2c0,0.1,0.1,0.1,0.2,0.2c0.1,0.1,0.2,0.1,0.3,0.2
		c0.1,0.1,0.3,0.1,0.4,0.2c0.1,0,0.2,0.1,0.3,0.1s0.3,0.1,0.4,0.2c0.2,0.1,0.5,0.2,0.7,0.3c0.2,0.1,0.4,0.3,0.6,0.5
		c0.2,0.2,0.3,0.4,0.4,0.7c0.1,0.3,0.2,0.6,0.1,1c0,0.4-0.1,0.8-0.2,1.1c-0.2,0.3-0.4,0.5-0.6,0.7c-0.3,0.2-0.6,0.3-0.9,0.4
		C193.3,12.2,192.9,12.3,192.5,12.3z"/>
	<path class="st0" d="M196.2,8.1c0-1.4,0.3-2.4,0.9-3.1c0.6-0.7,1.5-1,2.7-1c1.2,0,2.1,0.3,2.7,1c0.6,0.7,0.9,1.7,0.9,3.1
		c0,1.4-0.3,2.4-0.9,3.1c-0.6,0.7-1.5,1-2.7,1c-1.2,0-2.1-0.3-2.7-1C196.5,10.5,196.2,9.5,196.2,8.1z M198.4,8.1c0,0.4,0,0.8,0.1,1
		s0.1,0.5,0.2,0.6c0.1,0.2,0.3,0.3,0.4,0.3c0.2,0.1,0.4,0.1,0.7,0.1c0.3,0,0.5,0,0.7-0.1c0.2-0.1,0.3-0.2,0.4-0.4
		c0.1-0.2,0.2-0.4,0.2-0.7s0.1-0.6,0.1-1c0-0.4,0-0.8-0.1-1s-0.1-0.5-0.2-0.7c-0.1-0.2-0.3-0.3-0.4-0.3C200.3,6,200.1,6,199.8,6
		c-0.3,0-0.5,0-0.7,0.1c-0.2,0.1-0.3,0.2-0.4,0.3c-0.1,0.2-0.2,0.4-0.2,0.7S198.4,7.7,198.4,8.1z"/>
	<path class="st0" d="M204.2,8.1c0-1.4,0.3-2.4,0.9-3.1c0.6-0.7,1.5-1,2.7-1c0.2,0,0.5,0,0.7,0s0.5,0.1,0.7,0.1
		c0.2,0,0.4,0.1,0.6,0.1c0.2,0,0.3,0.1,0.4,0.1v1.9c-0.4-0.2-0.9-0.3-1.3-0.4c-0.4-0.1-0.8-0.1-1.1,0c-0.4,0.1-0.8,0.3-1.1,0.6
		s-0.4,0.9-0.4,1.6s0.1,1.3,0.4,1.6s0.6,0.6,1.1,0.6c0.3,0.1,0.7,0,1.1,0c0.4-0.1,0.9-0.2,1.3-0.4v1.9c-0.1,0-0.2,0.1-0.4,0.1
		c-0.2,0-0.4,0.1-0.6,0.1c-0.2,0-0.5,0.1-0.7,0.1s-0.5,0-0.7,0c-1.2,0-2.1-0.3-2.7-1C204.5,10.5,204.2,9.5,204.2,8.1z"/>
	<path class="st0" d="M211.1,4h2v4.8c0,0.3,0,0.5,0,0.7c0,0.2,0.1,0.3,0.2,0.4c0.1,0.1,0.2,0.2,0.3,0.2c0.1,0,0.3,0.1,0.5,0.1
		s0.4,0,0.5-0.1c0.1,0,0.2-0.1,0.3-0.2c0.1-0.1,0.1-0.3,0.2-0.4c0-0.2,0.1-0.4,0.1-0.7V4h2v5.5c0,1.8-1,2.7-3.1,2.7
		c-1,0-1.8-0.2-2.3-0.7c-0.5-0.5-0.8-1.1-0.8-2V4z"/>
	<path class="st0" d="M218.2,4h2v6.3h2.5v1.9h-4.6V4z"/>
	<path class="st0" d="M223.7,5.9h-1.8V4h5.5v1.9h-1.8v6.3h-2V5.9z"/>
	<path class="st0" d="M227.7,8.1c0-1.4,0.3-2.4,0.9-3.1c0.6-0.7,1.5-1,2.7-1c1.2,0,2.1,0.3,2.7,1c0.6,0.7,0.9,1.7,0.9,3.1
		c0,1.4-0.3,2.4-0.9,3.1c-0.6,0.7-1.5,1-2.7,1c-1.2,0-2.1-0.3-2.7-1C228,10.5,227.7,9.5,227.7,8.1z M229.8,8.1c0,0.4,0,0.8,0.1,1
		s0.1,0.5,0.2,0.6c0.1,0.2,0.3,0.3,0.4,0.3c0.2,0.1,0.4,0.1,0.7,0.1c0.3,0,0.5,0,0.7-0.1c0.2-0.1,0.3-0.2,0.4-0.4
		c0.1-0.2,0.2-0.4,0.2-0.7s0.1-0.6,0.1-1c0-0.4,0-0.8-0.1-1s-0.1-0.5-0.2-0.7c-0.1-0.2-0.3-0.3-0.4-0.3C231.8,6,231.5,6,231.3,6
		c-0.3,0-0.5,0-0.7,0.1c-0.2,0.1-0.3,0.2-0.4,0.3c-0.1,0.2-0.2,0.4-0.2,0.7S229.8,7.7,229.8,8.1z"/>
	<path class="st0" d="M235.4,11.2c0-0.7,0.4-1,1.1-1c0.7,0,1.1,0.3,1.1,1s-0.4,1-1.1,1c-0.4,0-0.6-0.1-0.8-0.2
		C235.5,11.8,235.4,11.6,235.4,11.2z"/>
	<path class="st0" d="M238,8.1c0-1.4,0.3-2.4,0.9-3.1c0.6-0.7,1.5-1,2.7-1c0.2,0,0.5,0,0.7,0s0.5,0.1,0.7,0.1c0.2,0,0.4,0.1,0.6,0.1
		c0.2,0,0.3,0.1,0.4,0.1v1.9c-0.4-0.2-0.9-0.3-1.3-0.4c-0.4-0.1-0.8-0.1-1.1,0c-0.4,0.1-0.8,0.3-1.1,0.6s-0.4,0.9-0.4,1.6
		s0.1,1.3,0.4,1.6s0.6,0.6,1.1,0.6c0.3,0.1,0.7,0,1.1,0c0.4-0.1,0.9-0.2,1.3-0.4v1.9c-0.1,0-0.2,0.1-0.4,0.1c-0.2,0-0.4,0.1-0.6,0.1
		c-0.2,0-0.5,0.1-0.7,0.1s-0.5,0-0.7,0c-1.2,0-2.1-0.3-2.7-1C238.3,10.5,238,9.5,238,8.1z"/>
	<path class="st0" d="M244.9,4h2v6.3h2.5v1.9h-4.6V4z"/>
</g>
<g>
	<path class="st0" d="M18.9,48.8V32.1H22v16.6H18.9z M21.7,44v-2.8H24c1,0,1.8-0.3,2.4-0.8s0.8-1.3,0.8-2.4c0-1-0.3-1.7-0.8-2.2
		S25,35,24,35h-2.2v-2.8H24c2.1,0,3.7,0.5,4.8,1.5s1.7,2.4,1.7,4.2c0,2-0.6,3.5-1.7,4.6S26.1,44,24,44H21.7z"/>
	<path class="st0" d="M38.2,49c-3.7,0-5.5-1.9-5.5-5.6V32.1h3.1v11.3c0,0.9,0.2,1.5,0.6,2s1,0.7,1.9,0.7c1.7,0,2.5-0.9,2.5-2.6V32.1
		h3.1v11.3c0,1.9-0.5,3.3-1.4,4.2S40.1,49,38.2,49z"/>
	<path class="st0" d="M47,48.8V32.1h3.1v16.6H47z M47,35v-2.8h11.4V35H47z M47,41.9V39h9.3v2.9H47z M47,48.8v-2.8h11.4v2.8H47z"/>
	<path class="st0" d="M61.1,48.8V32.1h3.1v16.6H61.1z M63.2,40.6v-1.1h4.6v1.1H63.2z M64,39.8v-1.2h2.3c0.7,0,1.3-0.2,1.6-0.5
		s0.6-0.8,0.6-1.4c0-0.6-0.2-1-0.6-1.3s-1-0.4-1.8-0.4H64l-0.3-2.8h2.4c1.8,0,3.1,0.4,4.1,1.1s1.4,1.7,1.4,3.1c0,1.1-0.4,2-1.1,2.6
		s-1.8,0.9-3.2,0.9H64z M64,48.8v-2.8h3c0.8,0,1.5-0.2,2-0.6s0.7-1,0.7-1.7c0-0.7-0.2-1.3-0.7-1.7s-1.2-0.6-2.1-0.6H64l-0.3-1.2h4.6
		c1.4,0,2.6,0.4,3.3,1.1s1.2,1.7,1.2,3c0,1.5-0.5,2.6-1.4,3.4s-2.2,1.2-3.9,1.2H64z"/>
	<path class="st0" d="M75.1,48.8V32.1h3.1v16.6H75.1z M75.1,48.8v-2.8h11.4v2.8H75.1z"/>
	<path class="st0" d="M94.5,49c-4.2,0-6.3-2.8-6.3-8.4c0-5.8,2.1-8.7,6.3-8.7s6.3,2.9,6.3,8.7C100.9,46.2,98.8,49,94.5,49z
		 M94.5,46.1c2.1,0,3.1-1.8,3.1-5.5c0-3.8-1-5.7-3.1-5.7s-3.1,1.9-3.1,5.7C91.5,44.2,92.5,46.1,94.5,46.1z"/>
	<path class="st0" d="M124.4,49c-5.3,0-8-2.9-8-8.6c0-2.7,0.7-4.8,2-6.3c1.3-1.5,3.2-2.2,5.7-2.2c1.1,0,2.1,0.2,2.9,0.5
		s1.5,0.9,1.9,1.5l-1.7,2.3c-0.4-0.4-0.8-0.8-1.3-1s-1.1-0.4-1.8-0.4c-1.3,0-2.4,0.5-3.2,1.4s-1.2,2.3-1.2,4c0,3.8,1.7,5.7,5.1,5.7
		c1.1,0,2.2-0.2,3.4-0.7l0.5,2.9C127.3,48.7,125.9,49,124.4,49z"/>
	<path class="st0" d="M131.1,48.8V32.1h3.1v16.6H131.1z M131.6,41.9v-2.9h10.3v2.9H131.6z M139.2,48.8V32.1h3.1v16.6H139.2z"/>
	<path class="st0" d="M145.5,34.9v-2.8h10.5v2.8H145.5z M145.5,48.8V46h10.5v2.8H145.5z M149.2,48.8V32.1h3.1v16.6H149.2z"/>
	<path class="st0" d="M166.6,49c-5.3,0-8-2.9-8-8.6c0-2.7,0.7-4.8,2-6.3c1.3-1.5,3.2-2.2,5.7-2.2c1.1,0,2.1,0.2,2.9,0.5
		s1.5,0.9,1.9,1.5l-1.7,2.3c-0.4-0.4-0.8-0.8-1.3-1s-1.1-0.4-1.8-0.4c-1.3,0-2.4,0.5-3.2,1.4s-1.2,2.3-1.2,4c0,3.8,1.7,5.7,5.1,5.7
		c1.1,0,2.2-0.2,3.4-0.7l0.5,2.9C169.5,48.7,168.1,49,166.6,49z"/>
	<path class="st0" d="M178.9,49c-4.2,0-6.3-2.8-6.3-8.4c0-5.8,2.1-8.7,6.3-8.7s6.3,2.9,6.3,8.7C185.3,46.2,183.1,49,178.9,49z
		 M178.9,46.1c2.1,0,3.1-1.8,3.1-5.5c0-3.8-1-5.7-3.1-5.7s-3.1,1.9-3.1,5.7C175.8,44.2,176.9,46.1,178.9,46.1z"/>
</g>
<g>
	<path class="st0" d="M199.3,25.8L199.3,25.8c0,0.2,0,0.6-0.1,1.2c0,0.1,0.1,0.3,0.2,0.6c0,0.6,0,0.9,0,0.9c0.1,0.5,0.2,1.9,0.2,4.2
		c-0.2,0.8-0.6,1.9-1.1,3.3c-0.1,0.2-0.1,0.9-0.2,2.3c-0.4,0.3-0.5,0.6-0.5,1c0,0.3,0.1,0.5,0.1,0.6c-0.2,0.8-0.3,1.5-0.3,2.4
		c-0.5,1.4-0.7,2.3-0.7,2.8c-0.2,0.7-0.2,1-0.2,1.1v0.3c-0.2,0.3-0.3,0.6-0.4,0.8c0.1,0.2,0.1,0.3,0.1,0.5c-0.3,1.7-0.5,2.5-0.7,2.5
		c-0.5,0.4-0.7,1-0.7,1.6c-0.1,0.3-0.2,0.4-0.3,0.5c-0.1,0-0.1-0.2-0.1-0.6c0,0-0.1,0-0.1-0.1c0,0.2-0.4,1.2-1.1,2.9
		c0,0.3-0.1,0.6-0.3,0.7h-0.1v-0.1c0-0.5,0.2-1.5,0.7-3.1v-0.2c0-0.1,0-0.2,0-0.2c0.2-0.6,0.2-1,0.2-1.2c-0.1-0.5-0.2-0.7-0.2-0.7
		c0.2-0.9,0.3-1.6,0.3-2l-0.1,0.1h-0.2v-0.2c0.1-0.6,0.3-1.6,0.4-2.9c0.2-0.9,0.3-1.6,0.3-2.1c-0.1,0-0.1-0.1-0.2-0.2v-0.1
		c0-0.2,0.1-0.9,0.3-2.1c-0.1,0-0.2-0.1-0.2-0.3V40c0.2-0.8,0.2-1.4,0.2-2v-0.4c0-0.4,0-0.8-0.1-1.2c0.1-0.5,0.4-1.2,0.7-2
		c0.1-0.1,0.1-0.4,0.2-0.8c-0.1-0.2-0.1-0.4-0.1-0.4c0,0,0.1-0.3,0.1-0.7l-0.2-0.4c0-0.2,0.1-0.6,0.3-1.4c0-0.3,0-0.6-0.1-0.9
		c0-0.2,0.2-0.6,0.7-1c0-0.1,0.4-0.6,1.2-1.5h0.4l0.3,0.1c0.1-0.3,0.2-0.5,0.4-0.5c0.1,0.2,0.1,0.3,0.1,0.4h0.1
		c0.1-0.8,0.2-1.2,0.4-1.2c0.1,0,0.1-0.1,0.1-0.2C199.1,25.8,199.2,25.8,199.3,25.8z M197.3,25.5h0.4l0.1,0.4v0.2
		c-0.1,0.2-0.2,0.3-0.4,0.3c-0.1,0-0.2-0.2-0.3-0.5C197.2,25.7,197.2,25.5,197.3,25.5z M198.9,24.5h0.2l0,0.3V25l-0.2,0.1h-0.1
		l-0.1-0.2C198.8,24.6,198.8,24.5,198.9,24.5z"/>
	<path class="st0" d="M213,18.9l0.1,0.5c-0.2,1.8-0.4,3.1-0.5,3.9c0,0.5,0.1,1,0.1,1.4c-0.1,0.7-0.2,1.3-0.2,1.6v0.2l0.2,1.2
		c-0.3,2.4-0.4,3.9-0.4,4.4v0.1h0c0.1-0.2,0.2-0.3,0.2-0.3h0c0.1,0,0.1,0,0.1,0.1c-0.3,2-0.6,3.7-0.9,5.1c-0.7,3.2-1,4.9-1,5.1
		c0,0.1,0,0.5,0.1,0.9c-0.3,1.6-0.5,2.6-0.5,2.8v0.9c0,0.2-0.1,0.4-0.4,0.7v0.9c-0.3,0.3-0.5,0.7-0.8,1.1c-0.2,0-0.3,0.2-0.4,0.5
		c0,0-0.3,0.2-0.7,0.6h-0.1l-0.5-0.2c-0.5,0.1-0.7,0.1-0.7,0.1v-0.3c0-0.1,0-0.1-0.1-0.2c-0.2,0-0.4,0.2-0.5,0.6
		c-0.2,0.3-0.4,0.5-0.6,0.5l0-0.1l0.1-0.4c-0.1-0.1-0.2-0.1-0.2-0.2v-0.2c0-0.1,0-0.1,0.1-0.1h0.2l0.1,0.1c0.2-0.6,0.3-1,0.3-1.3
		H206c-0.2,0.2-0.3,0.3-0.3,0.3h-0.1c-0.1,0-0.1,0-0.1-0.1v-0.1c0.3-0.5,0.4-0.8,0.4-1c-0.2-0.6-0.7-1.3-1.4-2.3
		c-0.2-0.4-0.4-1.1-0.7-2.1c-0.4-0.6-0.6-1.2-0.6-1.7c-0.4-1-0.7-1.5-0.8-1.6c-0.2,1.2-0.5,2-0.9,2.4c-0.3,0.2-0.4,0.8-0.4,1.6
		c0,0.1,0.1,0.3,0.2,0.7c-0.4,1.5-0.7,2.3-1,2.3c-0.1,0-0.3,0.5-0.5,1.4l-0.2,0.2h-0.1l0-0.3v-0.2h-0.2c-0.8,2.2-1.1,3.4-1.1,3.7
		H198c-0.1,0-0.1,0-0.1-0.1v-0.1c0.1-0.6,0.3-2.1,0.6-4.4l-0.2-0.6c0.1-0.6,0.2-1.2,0.3-1.9h0c-0.1,0.1-0.2,0.1-0.3,0.1v-0.1
		c0-0.4,0.1-1,0.4-1.8c0-0.2,0.2-1.1,0.5-2.5c0-0.1-0.1-0.3-0.2-0.6l1.1-4.4c0-0.3-0.1-0.5-0.1-0.6v-0.2c0-0.1,0.2-0.7,0.5-1.7
		c0-1,0.1-1.4,0.3-1.4l1.7-2l-0.1-0.4v-0.3l0.2-0.1c0,0.2,0.1,0.4,0.4,0.4c0-0.2,0-0.5,0.1-1l-0.1-0.3v-0.1c0.1-0.2,0.2-0.3,0.4-0.3
		c0.2,0,0.3,0.2,0.3,0.5c-0.1,0.3-0.1,0.5-0.1,0.5v0.2l0,0.6h0.1c0-0.1,0.1-0.2,0.1-0.2h0.1c0.1,0.3,0.1,0.5,0.1,0.5
		c0.3-0.2,0.6-0.7,0.8-1.4h0.1l0.1,0.3v0.1c-0.4,1.3-0.7,2.3-0.7,2.9c0,0,0,0,0,0.1c0,0.2,0,0.4,0,0.5v0.1l-0.2,0.9
		c0,0.1,0.2,0.6,0.7,1.4c0.9,2.4,1.3,4.4,1.3,5.8c0.3,0.9,0.5,1.9,0.7,2.9h0.1c0.5-2.6,0.8-4.1,1.1-4.4c0.4-0.5,0.7-1.9,1-4.2v-0.4
		l-0.1-1.1c0.5-2.2,0.7-3.4,0.7-3.6c0-0.5,0.2-1.2,0.7-2.3c0.1-0.5,0.3-1.6,0.5-3.2c0.1-0.2,0.2-0.3,0.2-0.3h0
		c0.1,0.2,0.1,0.4,0.1,0.5v0.5c0.1,0,0.3-0.7,0.4-2c0.5-2.2,0.7-3.4,0.7-3.6C212.9,19,213,18.9,213,18.9z M198.4,44.6v0.1h0
		L198.4,44.6L198.4,44.6z M201.6,27.6h0.4c0.1,0.2,0.1,0.4,0.1,0.5v0.2c-0.1,0.2-0.2,0.2-0.3,0.2c-0.1-0.2-0.3-0.2-0.3-0.2v-0.5
		C201.5,27.7,201.5,27.7,201.6,27.6z M203,26.3h0.2c0.1,0,0.1,0.1,0.2,0.3c-0.1,0.1-0.2,0.2-0.3,0.2H203v-0.1L203,26.3z M205.1,26.9
		h0.2l0,0.3v0.1c0,0.1,0,0.1-0.1,0.1h-0.2c-0.1,0-0.1,0-0.1-0.1V27C205,26.9,205,26.9,205.1,26.9z M205.4,52h0.2l0,0.3v0.1l-0.2,0.1
		h-0.1c0-0.1,0-0.2,0-0.2C205.3,52.1,205.3,52,205.4,52z M206.2,38.5v0.1c0,0.1,0.1,0.1,0.1,0.2h0v-0.1
		C206.2,38.6,206.2,38.5,206.2,38.5L206.2,38.5z M206.9,51.2h0.4c0.1,0.4,0.1,0.6,0.1,0.6c0,0.2-0.1,0.3-0.2,0.4h-0.1
		c-0.3,0-0.4-0.2-0.4-0.5C206.8,51.4,206.9,51.3,206.9,51.2z M211.5,24.2v0.2h0.1L211.5,24.2L211.5,24.2z M212.4,32.4
		c0,0.1,0,0.2-0.1,0.2h0.1L212.4,32.4L212.4,32.4z"/>
	<path class="st0" d="M207.5,27h0.3l0.1,0.3v0.1c-0.1,0-0.1,0-0.1,0.1c-0.2,0-0.3-0.1-0.3-0.2C207.5,27.2,207.5,27.1,207.5,27z
		 M207.8,39.3h0.3l0,0.3v0.1l-0.2,0.1h-0.1l-0.1-0.3C207.8,39.4,207.8,39.3,207.8,39.3z M208.5,28.4h0.3c0.2,0,0.3,0.1,0.3,0.2v0.2
		c0,0.1-0.1,0.2-0.3,0.3h-0.1c-0.2,0-0.3-0.1-0.3-0.3v-0.1L208.5,28.4z M220.1,25.2c0,0.2,0.1,0.3,0.1,0.3c0.3,0,0.7,0,1.3-0.1
		c0.6,0,1.1,0.2,1.3,0.5c0.2,0.1,0.3,0.1,0.3,0.1c0.8,0,1.5-0.2,1.8-0.6h0.1c0.3,0,0.7,0.1,1.1,0.2c0.2,0,0.3-0.1,0.5-0.1
		c0.1,0,0.4,0.2,0.9,0.6c0.3,0.1,0.8,0.2,1.4,0.2l0.1,0.2v0.1c0,0-0.2,0.1-0.4,0.3l0,0.1c0.1,0,0.9,0.3,2.3,0.8c0.7,0.2,1,0.3,1,0.4
		v0.1c-0.1,0-0.1,0-0.2,0.1c-1.1-0.2-2-0.3-2.6-0.5c-1,0.1-1.5,0.2-1.5,0.4c0,0.1-0.1,0.2-0.3,0.2h-0.7l-1,0.2
		c0.1,0.1,0.1,0.2,0.1,0.3c-0.1,0.1-0.3,0.1-0.6,0.2c-1.2,0-2.2-0.1-2.9-0.1H222c-0.5,0-0.7,0.2-0.7,0.5h-0.4
		c-0.3,0-0.7,0.1-1.1,0.2l0.1,0.6c0,1-0.6,2.7-1.7,5.1c0,1-0.1,1.8-0.4,2.5h0.1c0.5-0.1,0.9-0.2,1.2-0.2c0.9,0,1.5,0.2,1.6,0.5h0.1
		c0.7,0,1.1-0.2,1.4-0.6h0.5c0.9,0,1.4,0.1,1.4,0.4c0,0,0.1,0.1,0.3,0.2l0.2-0.1h0.4c0.1,0.1,0.1,0.1,0.2,0.1l-0.1,0.6h0.1
		c0.4,0,1.2-0.1,2.5-0.2l0,0.1v0.1c0,0.1-0.5,0.3-1.6,0.5c-0.2,0.1-0.5,0.2-0.9,0.5c-0.4,0-0.7,0.2-0.9,0.5c-0.6,0-1.1,0.1-1.4,0.4
		c0,0,0,0.1,0,0.3c-0.3,0.1-0.5,0.2-0.7,0.2h-1.9c-0.7,0-1,0.2-1,0.5c-0.5,0.1-1.1,0.2-1.5,0.2c-0.1,0-0.3,0-0.9-0.1
		c-0.5,0-0.8,0.5-1,1.4c-0.4,1.4-0.9,2.3-1.3,2.7c-0.3,0.2-0.6,1-0.8,2.4v0.2c0.1,0.2,0.1,0.4,0.1,0.5c-0.1,0.3-0.3,0.9-0.7,1.9
		c-0.2,0.8-0.4,1.2-0.6,1.2c-0.2,0-0.4,0.7-0.8,2.1l-0.2,0.2c-0.1,0-0.1-0.2-0.1-0.6c0,0-0.1,0-0.1-0.1c-0.2,0.8-0.6,2.2-1,4.2
		l-0.2,0.2c-0.1,0-0.1,0-0.1-0.1c0-0.3,0.2-2.1,0.6-5.4c-0.1-0.5-0.1-0.8-0.1-0.9v-0.1c0.3-1.3,0.5-2.1,0.5-2.6c0,0-0.1,0-0.1-0.1
		l-0.1,0.1h-0.2v-0.1c0-0.3,0.2-1.2,0.7-2.6c0-0.3,0.3-1.2,0.9-2.8c0.1-0.3,0.2-0.6,0.2-1.1c-0.9-0.6-1.6-1.1-2.1-1.5v-0.7
		c-0.4-0.1-0.6-0.3-0.6-0.4l0.3-0.3c0-0.1-0.4-0.2-1.3-0.4l-0.1-0.1c0-0.2,0.7-0.3,2-0.3c0.4-0.1,0.9-0.3,1.6-0.7h0.5
		c0.1,0,0.4,0.1,0.8,0.3v-0.1c0.5-1.5,0.7-2.3,0.7-2.4v-0.8c0-0.1,0.2-0.9,0.7-2.5c0-0.8,0.1-1.5,0.4-2.2h0c-0.2,0-0.2,0-0.2,0.1
		l-0.2-0.1h-0.2c-0.7,0.3-1.1,0.5-1.4,0.5h-0.1c-0.3,0-0.9-0.3-1.8-1c-0.4,0-0.9-0.3-1.4-0.9l0.1-0.7c-0.4,0-0.6-0.2-0.7-0.5
		c0.3-0.1,0.4-0.2,0.4-0.3c-0.9-0.3-1.4-0.5-1.4-0.6v-0.1c0-0.1,0.2-0.2,0.4-0.2h1.6c0.1,0,1-0.2,2.5-0.6h0.1c1,0.2,1.6,0.3,1.8,0.3
		c0.3,0,0.8-0.2,1.3-0.5c0.1,0,0.1-0.1,0.2-0.1h0.1c0.1,0,0.4,0.1,0.7,0.3c0,0,0.1,0,0.2,0.1c0.2-0.1,0.9-0.3,2.1-0.5
		C219.7,25.4,219.9,25.2,220.1,25.2z M208.9,40.6h0.4c0.2,0,0.3,0.1,0.3,0.3V41c0,0.1-0.1,0.2-0.3,0.4h-0.2
		c-0.2-0.1-0.2-0.2-0.2-0.5v-0.1C208.9,40.8,208.9,40.7,208.9,40.6z M211.6,54.2v0.1h0.1v-0.1H211.6z M213.3,26.2L213.3,26.2
		c0.1,0.1,0.1,0.1,0.2,0.1v-0.1l-0.1-0.1H213.3z M218,24.7h0.1c0.3,0,0.4,0.1,0.4,0.2v0.3c0,0.2-0.1,0.3-0.2,0.4h-0.3
		c-0.1-0.3-0.2-0.4-0.2-0.5L218,24.7z M219.1,32.7v0.1h0L219.1,32.7L219.1,32.7z M219.6,23.9h0.3l0,0.3v0.1l-0.3,0.1l-0.1-0.3
		C219.6,24,219.6,23.9,219.6,23.9z M225.5,28.8L225.5,28.8l0.1,0.1v-0.1H225.5z"/>
	<path class="st0" d="M229.8,25.8L229.8,25.8c0,0.2,0,0.6-0.1,1.2c0,0.1,0.1,0.3,0.2,0.6c0,0.6,0,0.9,0,0.9c0.1,0.5,0.2,1.9,0.2,4.2
		c-0.2,0.8-0.6,1.9-1.1,3.3c-0.1,0.2-0.1,0.9-0.2,2.3c-0.4,0.3-0.5,0.6-0.5,1c0,0.3,0.1,0.5,0.1,0.6c-0.2,0.8-0.3,1.5-0.3,2.4
		c-0.5,1.4-0.7,2.3-0.7,2.8c-0.2,0.7-0.2,1-0.2,1.1v0.3c-0.2,0.3-0.3,0.6-0.4,0.8c0.1,0.2,0.1,0.3,0.1,0.5c-0.3,1.7-0.5,2.5-0.7,2.5
		c-0.5,0.4-0.7,1-0.7,1.6c-0.1,0.3-0.2,0.4-0.3,0.5c-0.1,0-0.1-0.2-0.1-0.6c0,0-0.1,0-0.1-0.1c0,0.2-0.4,1.2-1.1,2.9
		c0,0.3-0.1,0.6-0.3,0.7h-0.1v-0.1c0-0.5,0.2-1.5,0.7-3.1v-0.2c0-0.1,0-0.2,0-0.2c0.2-0.6,0.2-1,0.2-1.2c-0.1-0.5-0.2-0.7-0.2-0.7
		c0.2-0.9,0.3-1.6,0.3-2l-0.1,0.1h-0.2v-0.2c0.1-0.6,0.3-1.6,0.4-2.9c0.2-0.9,0.3-1.6,0.3-2.1c-0.1,0-0.1-0.1-0.2-0.2v-0.1
		c0-0.2,0.1-0.9,0.3-2.1c-0.1,0-0.2-0.1-0.2-0.3V40c0.2-0.8,0.2-1.4,0.2-2v-0.4c0-0.4,0-0.8-0.1-1.2c0.1-0.5,0.4-1.2,0.7-2
		c0.1-0.1,0.1-0.4,0.2-0.8c-0.1-0.2-0.1-0.4-0.1-0.4c0,0,0.1-0.3,0.1-0.7l-0.2-0.4c0-0.2,0.1-0.6,0.3-1.4c0-0.3,0-0.6-0.1-0.9
		c0-0.2,0.2-0.6,0.7-1c0-0.1,0.4-0.6,1.2-1.5h0.4l0.3,0.1c0.1-0.3,0.2-0.5,0.4-0.5c0.1,0.2,0.1,0.3,0.1,0.4h0.1
		c0.1-0.8,0.2-1.2,0.4-1.2c0.1,0,0.1-0.1,0.1-0.2C229.6,25.8,229.7,25.8,229.8,25.8z M227.8,25.5h0.4l0.1,0.4v0.2
		c-0.1,0.2-0.2,0.3-0.4,0.3c-0.1,0-0.2-0.2-0.3-0.5C227.7,25.7,227.7,25.5,227.8,25.5z M229.4,24.5h0.2l0,0.3V25l-0.2,0.1h-0.1
		l-0.1-0.2C229.3,24.6,229.3,24.5,229.4,24.5z"/>
	<path class="st0" d="M223.4,47.1h0.2c0.1,0,0.1,0,0.1,0.1v0.1c0,0.1,0,0.1-0.1,0.2h-0.1V47.1z M236.5,26.5L236.5,26.5
		c0.1,0,0.1,0,0.1,0.1v0.1c-0.1,0.3-0.1,0.5-0.1,0.6v0.2c0,0.1,0.1,0.2,0.3,0.2l0.3-0.3c0.1,0,0.2,0,0.4,0.1c0.3,0,0.5-0.1,0.7-0.1
		h0.1l1.4,0.5c0,0.1,0,0.1,0.1,0.1h0.1c0.1-0.1,0.3-0.3,0.8-0.5c0-0.1,0.1-0.2,0.2-0.2c1,0,1.6,0.1,1.6,0.3l0,0.1
		c-0.1,0-0.1,0-0.1,0.1c0.2,0,0.4,0.1,0.4,0.1l0.2-0.1h0.3c0.2,0,0.3,0.1,0.4,0.3c0,0-0.1,0.1-0.2,0.2c0.1,0.1,0.1,0.2,0.1,0.3h0.6
		c1.2,0.2,1.8,0.3,2,0.3v0.1l-0.3,0.1h-1.7c-0.5,0-0.9,0.1-1.2,0.4l-0.1-0.1h-0.1c0,0.3-0.5,0.5-1.4,0.6c-0.1,0.1-0.2,0.2-0.2,0.2
		c0,0.1,0,0.1,0,0.2h-0.1l-0.3,0.1c-0.2,0-0.6,0-1.3-0.1c-0.8,0-1.3,0.2-1.5,0.5c-0.2,0.1-0.5,0.2-0.9,0.2h-0.2
		c-0.4,0.5-0.5,1-0.5,1.6c0,0.2-0.2,0.5-0.5,0.8c0,0.4-0.3,0.9-0.7,1.6c-0.2,0.4-0.2,0.7-0.2,1v0.4c0.6,0.2,1,0.3,1,0.4h0.2
		c0-0.1,0.2-0.3,0.5-0.4l0.1-0.3h0.8L238,36c0.2,0.3,0.3,0.4,0.4,0.4c0.2-0.1,0.3-0.1,0.4-0.1h0.1c0.2,0,0.3,0.1,0.3,0.2v0.1
		l-0.1,0.2v0.1c0,0.1,0.6,0.2,1.8,0.3c0,0,0,0.1,0,0.1c0.2,0,0.3-0.1,0.4-0.1h0.4v0.1c-1.4,0.2-2.3,0.3-2.5,0.4
		c0,0.1-0.2,0.2-0.5,0.3c0,0.2-0.2,0.4-0.7,0.5c-0.4,0.1-0.7,0.2-0.8,0.4c0,0.1,0,0.1,0,0.2c-0.1,0.1-0.3,0.2-0.6,0.2h-0.1
		c-0.2,0-0.4,0-0.6-0.1c-1,0.1-1.5,0.3-1.5,0.5l-0.4,0.1l-0.1-0.1c-0.3,0-0.6,0.2-0.7,0.5c0,0.1-0.2,0.5-0.6,1.4
		c-0.2,0.9-0.5,1.5-0.9,1.8c-0.1,0-0.1,0.2-0.2,0.5c-0.2,0-0.4,0.2-0.5,0.7c-0.1,0-0.2,0.1-0.3,0.4l0,0.3v0.4c1-0.1,1.5-0.2,1.5-0.4
		c0.1-0.1,0.3-0.2,0.5-0.2c0.1,0,0.2,0,0.5,0.1c0,0.1,0,0.2,0.1,0.2V45c0,0,0.1,0,0.4,0.1c0.1,0,0.9-0.3,2.2-0.8l2.5-0.5l2.4,0.3
		h0.1c0.1-0.2,0.4-0.4,1.1-0.5c0.1-0.2,0.4-0.4,0.8-0.4h0.4c1.1,0,1.7,0.1,1.7,0.4c-0.1,0-0.1,0-0.1,0.1c0.1,0,0.2,0,0.3,0.1
		c0.4,0,0.7-0.1,0.9-0.1c0.2,0,0.4,0.1,0.5,0.3l-0.3,0.3v0.1c0,0.1,0.2,0.2,0.5,0.3c0.5,0,0.8-0.1,0.9-0.1c0.5,0,0.9,0.1,1.3,0.4h0
		c0.3,0,0.5-0.1,0.7-0.1l0,0.1c-0.2,0-0.4,0.1-0.4,0.1c-0.2,0-0.3-0.1-0.4-0.1c-0.6,0-1.2,0-1.9-0.1c-0.3,0-0.7,0.1-1,0.1
		c-0.4,0.2-0.7,0.4-0.8,0.4h0v-0.1c0.1,0,0.2-0.1,0.2-0.2h-0.2c0,0.2-0.8,0.4-2.5,0.7v0.1c0.1,0,0.2,0,0.2,0.1v0.1
		c-0.6,0-1.9,0.2-3.8,0.5c-0.4,0-0.6,0.1-0.6,0.3c-0.7,0.4-1.3,0.6-1.9,0.6l-0.3-0.1c-1.8,0.4-3,0.7-3.6,0.9c0,0-0.3,0.1-0.9,0.3
		c-0.4,0.2-0.7,0.3-0.9,0.3h-0.5c-0.1,0-0.2,0.1-0.3,0.3h-0.6c-0.4,0-0.6,0.2-0.6,0.5l-0.3,0.4h0c-0.1,0-0.1-0.1-0.1-0.3h-0.1
		c-0.3,0-0.5,0.5-0.6,1.4l-0.5,1c-0.1,0-0.2,0.3-0.4,1l-0.1,0.1h0v-0.2c0.2-0.9,0.5-1.9,0.9-3c0-0.2,0-0.4,0-0.5v-0.5
		c-1.2-0.2-1.8-0.5-1.8-0.7c0,0-0.1-0.1-0.1-0.2V48c0-0.2,0-0.3-0.1-0.4l-0.2,0.1h-0.5v-0.1c0-0.1,0.2-0.1,0.7-0.3
		c0-0.1,0-0.1,0.1-0.1v-0.1c-0.8-0.1-1.4-0.2-1.8-0.4v-0.1c1.2,0,2.6-0.4,4.1-1.2c0.3-1,0.7-1.9,1.1-2.8c0.1-0.4,0.2-0.9,0.5-1.5
		v-0.9c0.2-0.6,0.3-1,0.3-1.1v-0.1c0-0.1-0.3-0.5-0.9-1v-0.2c0-0.2,0-0.5,0-0.9c-0.2-0.1-0.4-0.2-0.4-0.3v-0.1h0.4
		c0-0.1,0-0.1,0.1-0.2c-0.2-0.3-0.6-0.6-1.1-0.8v-0.2h0.3c0.3,0.2,0.8,0.4,1.6,0.4c0.1,0,0.6,0,1.3-0.1c0.2-0.6,0.3-1,0.3-1.3v-0.1
		h0c-0.3,0.3-0.5,0.5-0.5,0.5v-0.2c0.7-0.9,1.1-1.8,1.1-2.6h-0.4c0,0,0-0.1,0-0.1c-0.3,0-0.7-0.1-1.1-0.4c-0.7-0.1-1.1-0.4-1.1-0.9
		c-0.1-0.3-0.1-0.4-0.1-0.5h-0.1c-0.1,0-0.1,0-0.2,0.1c-0.1,0-0.1-0.1-0.2-0.1v-0.1c0.3-0.2,0.5-0.4,0.5-0.4
		c-0.4-0.1-0.7-0.2-0.9-0.2h-0.4l-0.2-0.1c0-0.1,0.3-0.2,0.8-0.2c0-0.1,0.3-0.2,0.8-0.3c0.8-0.6,1.4-0.9,1.8-0.9
		c0.1,0,0.3,0.1,0.5,0.2c0.9,0,1.5-0.2,1.8-0.5c0.3-0.2,0.4-0.4,0.4-0.6h0.3l0.3,0.5h0.1c0.1-0.6,0.3-0.8,0.5-0.8
		c0.1,0.1,0.2,0.2,0.3,0.2l0-0.1v-0.3C236.2,26.5,236.4,26.5,236.5,26.5z M224.4,48.2h0.2c0.2,0,0.3,0.1,0.4,0.2v0.2
		c-0.1,0.2-0.2,0.3-0.4,0.3h-0.1c0-0.1,0-0.2-0.1-0.4C224.4,48.4,224.4,48.3,224.4,48.2z M227.2,46.2L227.2,46.2l0.2,0.1v-0.1
		c-0.1,0-0.1,0-0.1-0.1C227.2,46.2,227.2,46.2,227.2,46.2z M227.4,29.9L227.4,29.9c0.2,0,0.2,0,0.2,0.1v0.2c0,0.1,0,0.1-0.1,0.1
		h-0.1l0-0.3C227.3,30,227.4,29.9,227.4,29.9z M227.5,35.5L227.5,35.5c0.1,0,0.2,0.1,0.2,0.2v0.1c0,0.1,0,0.1-0.1,0.1h-0.1
		c-0.1,0-0.1,0-0.1-0.1L227.5,35.5z M228.1,37.1c0.4,0,0.5,0.1,0.5,0.4c0,0-0.1,0.1-0.3,0.3c-0.2,0-0.3-0.1-0.3-0.3L228.1,37.1z
		 M228.8,30.9c0.1,0,0.2,0.1,0.2,0.2v0.2c-0.1,0.2-0.2,0.4-0.4,0.4h0c-0.1,0-0.1-0.1-0.2-0.3C228.5,31,228.6,30.9,228.8,30.9z
		 M230.4,28.8c0,0,0,0.1,0,0.2h0.1C230.4,28.9,230.5,28.9,230.4,28.8L230.4,28.8z M230.4,36c0,0.1,0,0.1,0.1,0.1L230.4,36L230.4,36z
		 M234.1,39.2L234.1,39.2L234.1,39.2c0.1,0,0.2,0,0.2,0v-0.1h0C234.1,39.2,234.1,39.2,234.1,39.2z M234.2,48.1L234.2,48.1
		L234.2,48.1L234.2,48.1L234.2,48.1z M234.7,25.9h0.3c0.2,0.2,0.3,0.4,0.3,0.6l-0.1,0.4c-0.3,0-0.5-0.2-0.6-0.7v-0.1
		C234.6,26,234.6,26,234.7,25.9z M235.4,27.5v0.1h0.1L235.4,27.5L235.4,27.5z M236.3,25.3h0.1c0,0.1,0,0.1,0.1,0.2v0.2l-0.2,0.1
		h-0.1c0-0.1,0-0.1,0-0.2C236.2,25.3,236.2,25.3,236.3,25.3z M236.9,26L236.9,26c0.1,0,0.1,0.1,0.2,0.2v0.1c0,0.1,0,0.1-0.1,0.1
		h-0.1c-0.1,0-0.1,0-0.1-0.1v-0.2C236.8,26.1,236.8,26,236.9,26z M238.8,37.8L238.8,37.8l0,0.1h0V37.8z M242.9,29.3L242.9,29.3
		L242.9,29.3c0,0.1,0,0.2,0,0.2h0v-0.1C242.8,29.4,242.9,29.3,242.9,29.3z M244.9,44.5L244.9,44.5l0.1,0.1v-0.1H244.9z"/>
	<path class="st0" d="M237.8,39.4h0.1c0.1,0,0.1,0.1,0.1,0.1v0.2c0,0.1,0,0.1-0.1,0.1h-0.2l-0.1-0.3
		C237.7,39.5,237.7,39.4,237.8,39.4z M247.6,27.4c0.4,0.1,1.1,0.1,2.2,0.2c1.1,0.3,2.1,0.7,2.9,1.3c1.2,1,1.8,1.6,1.9,2
		c0.1,0,0.2,0.2,0.4,0.5c0.3,0.2,0.6,0.7,0.7,1.2c0.2,1,0.3,1.6,0.3,1.8c0,1.1-0.7,2.8-2.1,4.9l-2.3,2.4c-0.1,0.1-0.4,0.3-1,0.7
		c0,0.2-0.5,0.5-1.3,0.8c-0.1,0.1-0.2,0.1-0.2,0.2c0.5,0.4,1.2,1,2,1.8c0.2,0,0.3,0.1,0.4,0.4c0.1,0,0.3,0.4,0.6,1.1
		c0,0,0.2,0.3,0.6,0.9c0.2,0,0.5,0.1,1,0.4c0.4,0,0.7,0.2,0.9,0.7c0.1,0.2,0.4,0.5,0.7,0.8c0,0.3,0.1,0.4,0.1,0.5
		c-0.1,0-0.1,0.1-0.2,0.1v0.1c0,0.1,0.3,0.5,1,1.1v0.1c0,0.1-0.2,0.1-0.5,0.2c0,0.3,0.2,0.5,0.6,0.8c0,0.1,0.2,0.4,0.7,0.9
		c0.1,0.4,0.3,0.7,0.4,0.8c0.2,0,0.3,0.2,0.6,0.6h-0.3c0-0.1-0.4-0.5-1.2-1.1c-0.8-1.1-1.5-1.6-2.1-1.6c0,0,0-0.1-0.1-0.1v-0.1
		c0.1,0,0.2,0,0.2-0.1c-0.4,0-0.8-0.2-1.2-0.6c-0.2-0.2-0.4-0.4-0.7-0.4c0-0.1,0-0.2-0.1-0.2h-0.1l-0.1,0.2h-0.2
		c-0.4-0.6-1.1-1.3-2.2-2.2c-0.2-0.4-0.6-0.5-1.2-0.5c-0.5-0.2-0.9-0.6-1.2-1.1c-0.1,0-0.3-0.2-0.6-0.5c-0.1,0-0.5-0.4-1.4-1.2
		c-0.4-0.3-0.8-0.5-1-0.5h-0.2c-0.1,0-0.3,0.5-0.6,1.2c-0.1,0-0.2,0.3-0.2,0.9v0.5l0.2,0.6v0.1c0,0.4-0.3,1.2-0.9,2.5
		c-0.1,0-0.2,0-0.3-0.1c-0.3,1.2-0.6,1.8-0.6,1.8c-0.2-0.2-0.3-0.4-0.3-0.4c-0.2,0-0.3,0.1-0.3,0.3c0,0.3-0.4,1-1.1,2.2
		c-0.2,0.8-0.4,1.2-0.4,1.2l-0.1-0.2c0-0.1,0.4-1.2,1.1-3.2l0.1-0.6c-0.1-0.3-0.1-0.6-0.1-0.9h0.1c-0.1-0.3-0.2-0.5-0.2-0.6
		c0-0.2,0.1-1,0.2-2.4l-0.1,0.1h-0.2v-0.1c0.1-0.8,0.5-2,0.9-3.5l0.1-0.8c-0.3-0.1-0.6-0.4-0.9-0.8l0-0.4v-0.4l0.1-0.1
		c-0.8-0.2-1.2-0.4-1.2-0.4c0,0,0.1,0,0.2-0.1c0.3,0,0.5,0.1,0.7,0.1h0.2c0.1,0,0.1-0.1,0.2-0.2c-0.9-0.3-1.7-0.7-2.2-1.2h0.2
		c0.5,0.2,1.2,0.4,2,0.4v-0.1c0-0.1,0-0.1,0-0.1l0-0.3V39c0-0.3,0.2-0.6,0.5-0.7l0.2-0.2V38c-0.1-0.2-0.2-0.4-0.2-0.5
		c0-0.1,0-0.1,0.1-0.1c0,0.2,0.2,0.3,0.5,0.4v-0.3c0-0.3-0.2-0.8-0.5-1.5v-0.2h0.2c0.5,1,0.8,1.5,1.1,1.5c0.2-0.4,0.3-1.1,0.3-2.3
		c0-0.2,0.1-0.4,0.3-0.6V34c0-0.3,0.1-0.7,0.3-0.9c0-0.1,0-0.2-0.1-0.4c0.3-0.7,0.9-1.3,1.9-1.7c0.5,0,0.8-0.1,0.8-0.3v-0.1
		c-0.2,0-0.3,0-0.3-0.1l-0.7,0.1c-0.3-0.1-0.7-0.2-1-0.3v-0.1l0.1-0.2h-0.3c-0.4,0.2-1,0.3-1.8,0.3c-0.1,0-0.3-0.1-0.4-0.1v-0.2
		c0.1,0,0.3-0.1,0.3-0.2c-0.1-0.1-0.2-0.2-0.2-0.3c-1.2,0.3-2,0.6-2.4,0.9c-0.3,0.3-0.6,0.5-0.7,0.5c-0.1,0-0.1,0-0.2-0.1
		c-0.6,0.4-0.9,0.6-1,0.6v-0.2c2.5-1.7,4.1-2.5,4.8-2.5l-0.1-0.1c0,0,0.5-0.2,1.4-0.6h0c0,0.1-0.1,0.2-0.4,0.2v0.1l0.3,0.1
		c0.4-0.4,1-0.6,1.8-0.6c0.6-0.2,1.3-0.3,2.2-0.3v-0.1c-0.1,0-0.2,0-0.2-0.1V27.4z M238.7,41.1c0.2,0,0.3,0.1,0.5,0.4v0.2
		c-0.2,0.2-0.4,0.2-0.5,0.2h-0.1c-0.1,0-0.1-0.1-0.2-0.2v-0.5L238.7,41.1z M240.3,36.7c0.2,0.1,0.4,0.3,0.4,0.5v0.2l-0.4,0.1h-0.2
		c-0.1-0.3-0.2-0.5-0.2-0.5C240.1,36.8,240.3,36.7,240.3,36.7z M240.7,34.9h0.2c0.1,0,0.1,0.1,0.1,0.1v0.2c0,0.1,0,0.1-0.1,0.1h-0.1
		c-0.1,0-0.1,0-0.1-0.1L240.7,34.9z M240.7,50L240.7,50l0,0.2h0V50z M244,31.2h0.2l0,0.3v0.1l-0.3,0.1l-0.1-0.3
		C243.9,31.3,244,31.2,244,31.2z M244.5,29.2L244.5,29.2l0.3,0.1v-0.1H244.5z M249,30.6c0,0-0.1,0-0.3-0.1c-0.5,0.1-0.7,0.1-0.7,0.3
		v0.4c0.1,0.4,0.2,0.8,0.2,1.4c0,0.7-0.1,1.1-0.4,1.1c0,0.3-0.1,0.5-0.3,0.5v0.3c0,0.1-0.2,0.7-0.7,1.8v0.2c0,0,0,0.3,0.1,0.8
		c-0.1,0.2-0.3,0.7-0.7,1.5c-0.1,0.2-0.1,0.5-0.1,0.8c0.2,0.1,0.5,0.2,0.9,0.2c0.8-0.2,1.7-0.4,2.6-0.8c0-0.2,0.2-0.5,0.5-0.8
		c0.3-0.1,0.7-0.3,1.1-0.7c0.4,0,0.7-0.4,1-1.1c0.1-0.2,0.3-0.7,0.6-1.7l-0.1-0.1c0-0.1,0.1-0.3,0.1-0.4c-0.5-1.7-1.1-2.8-2-3.3
		c-0.2-0.1-0.3-0.1-0.3-0.2l0.1-0.1c-0.1,0-0.2-0.1-0.5-0.2C249.5,30.5,249.2,30.6,249,30.6z M247.8,31.5c0,0.1,0.1,0.1,0.1,0.2h0
		v-0.2H247.8z M250.8,37.6v0.1c0.1,0,0.1-0.1,0.2-0.1v-0.1H250.8z M253,39.8v0.1h0.1L253,39.8L253,39.8z M253.4,39.4l-0.1,0.1v0.1
		h0.1C253.4,39.5,253.4,39.5,253.4,39.4L253.4,39.4z"/>
	<path class="st0" d="M268.8,18.9l0.1,0.5c-0.2,1.8-0.4,3.1-0.5,3.9c0,0.5,0.1,1,0.1,1.4c-0.1,0.7-0.2,1.3-0.2,1.6v0.2l0.2,1.2
		c-0.3,2.4-0.4,3.9-0.4,4.4v0.1h0c0.1-0.2,0.2-0.3,0.2-0.3h0c0.1,0,0.1,0,0.1,0.1c-0.3,2-0.6,3.7-0.9,5.1c-0.7,3.2-1,4.9-1,5.1
		c0,0.1,0,0.5,0.1,0.9c-0.3,1.6-0.5,2.6-0.5,2.8v0.9c0,0.2-0.1,0.4-0.4,0.7v0.9c-0.3,0.3-0.5,0.7-0.8,1.1c-0.2,0-0.3,0.2-0.4,0.5
		c0,0-0.3,0.2-0.7,0.6h-0.1l-0.5-0.2c-0.5,0.1-0.7,0.1-0.7,0.1v-0.3c0-0.1,0-0.1-0.1-0.2c-0.2,0-0.4,0.2-0.5,0.6
		c-0.2,0.3-0.4,0.5-0.6,0.5l0-0.1l0.1-0.4c-0.1-0.1-0.2-0.1-0.2-0.2v-0.2c0-0.1,0-0.1,0.1-0.1h0.2l0.1,0.1c0.2-0.6,0.3-1,0.3-1.3
		h-0.1c-0.2,0.2-0.3,0.3-0.3,0.3h-0.1c-0.1,0-0.1,0-0.1-0.1v-0.1c0.3-0.5,0.4-0.8,0.4-1c-0.2-0.6-0.7-1.3-1.4-2.3
		c-0.2-0.4-0.4-1.1-0.7-2.1c-0.4-0.6-0.6-1.2-0.6-1.7c-0.4-1-0.7-1.5-0.8-1.6c-0.2,1.2-0.5,2-0.9,2.4c-0.3,0.2-0.4,0.8-0.4,1.6
		c0,0.1,0.1,0.3,0.2,0.7c-0.4,1.5-0.7,2.3-1,2.3c-0.1,0-0.3,0.5-0.5,1.4l-0.2,0.2h-0.1l0-0.3v-0.2H255c-0.8,2.2-1.1,3.4-1.1,3.7
		h-0.1c-0.1,0-0.1,0-0.1-0.1v-0.1c0.1-0.6,0.3-2.1,0.6-4.4l-0.2-0.6c0.1-0.6,0.2-1.2,0.3-1.9h0c-0.1,0.1-0.2,0.1-0.3,0.1v-0.1
		c0-0.4,0.1-1,0.4-1.8c0-0.2,0.2-1.1,0.5-2.5c0-0.1-0.1-0.3-0.2-0.6l1.1-4.4c0-0.3-0.1-0.5-0.1-0.6v-0.2c0-0.1,0.2-0.7,0.5-1.7
		c0-1,0.1-1.4,0.3-1.4l1.7-2l-0.1-0.4v-0.3l0.2-0.1c0,0.2,0.1,0.4,0.4,0.4c0-0.2,0-0.5,0.1-1l-0.1-0.3v-0.1c0.1-0.2,0.2-0.3,0.4-0.3
		c0.2,0,0.3,0.2,0.3,0.5c-0.1,0.3-0.1,0.5-0.1,0.5v0.2l0,0.6h0.1c0-0.1,0.1-0.2,0.1-0.2h0.1c0.1,0.3,0.1,0.5,0.1,0.5
		c0.3-0.2,0.6-0.7,0.8-1.4h0.1l0.1,0.3v0.1c-0.4,1.3-0.7,2.3-0.7,2.9c0,0,0,0,0,0.1c0,0.2,0,0.4,0,0.5v0.1l-0.2,0.9
		c0,0.1,0.2,0.6,0.7,1.4c0.9,2.4,1.3,4.4,1.3,5.8c0.3,0.9,0.5,1.9,0.7,2.9h0.1c0.5-2.6,0.8-4.1,1.1-4.4c0.4-0.5,0.7-1.9,1-4.2v-0.4
		l-0.1-1.1c0.5-2.2,0.7-3.4,0.7-3.6c0-0.5,0.2-1.2,0.7-2.3c0.1-0.5,0.3-1.6,0.5-3.2c0.1-0.2,0.2-0.3,0.2-0.3h0
		c0.1,0.2,0.1,0.4,0.1,0.5v0.5c0.1,0,0.3-0.7,0.4-2c0.5-2.2,0.7-3.4,0.7-3.6C268.6,19,268.7,18.9,268.8,18.9z M254.2,44.6v0.1h0
		L254.2,44.6L254.2,44.6z M257.4,27.6h0.4c0.1,0.2,0.1,0.4,0.1,0.5v0.2c-0.1,0.2-0.2,0.2-0.3,0.2c-0.1-0.2-0.3-0.2-0.3-0.2v-0.5
		C257.2,27.7,257.3,27.7,257.4,27.6z M258.8,26.3h0.2c0.1,0,0.1,0.1,0.2,0.3c-0.1,0.1-0.2,0.2-0.3,0.2h-0.1v-0.1L258.8,26.3z
		 M260.8,26.9h0.2l0,0.3v0.1c0,0.1,0,0.1-0.1,0.1h-0.2c-0.1,0-0.1,0-0.1-0.1V27C260.7,26.9,260.8,26.9,260.8,26.9z M261.1,52h0.2
		l0,0.3v0.1l-0.2,0.1H261c0-0.1,0-0.2,0-0.2C261,52.1,261.1,52,261.1,52z M261.9,38.5v0.1c0,0.1,0.1,0.1,0.1,0.2h0v-0.1
		C262,38.6,262,38.5,261.9,38.5L261.9,38.5z M262.6,51.2h0.4c0.1,0.4,0.1,0.6,0.1,0.6c0,0.2-0.1,0.3-0.2,0.4h-0.1
		c-0.3,0-0.4-0.2-0.4-0.5C262.6,51.4,262.6,51.3,262.6,51.2z M267.2,24.2v0.2h0.1L267.2,24.2L267.2,24.2z M268.1,32.4
		c0,0.1,0,0.2-0.1,0.2h0.1L268.1,32.4L268.1,32.4z"/>
	<path class="st0" d="M274.5,27.2h0.2c0.3,0.3,0.5,0.4,0.7,0.4h0.5c0.3,0,0.7,0.3,1.4,1h0.1c0.2-0.1,0.4-0.1,0.4-0.1
		c0.2,0,0.3,0.1,0.4,0.3c0,0.1-0.1,0.3-0.3,0.7c0.5,0.8,0.7,1.3,0.7,1.7v0.1l-0.2,0.1h-0.1c-0.1,0-0.3,0-0.4-0.1
		c-0.2,0.1-0.2,0.2-0.2,0.3c0.4,0.4,0.6,0.6,0.8,0.6c0-0.1,0.1-0.2,0.1-0.2h0.3c0.3,0.1,0.4,0.2,0.4,0.5c0,0.1-0.1,0.2-0.3,0.5
		c0.7,0.6,1,1.8,1,3.6c0.2,0.4,0.3,0.7,0.3,0.9c-0.2,0.9-0.3,1.8-0.4,2.7c-0.1,0.3-0.2,0.8-0.3,1.5l0.3-0.3h0.1v0.1
		c0,1-0.7,2.6-2.2,4.9c-1.2,1.5-2.2,2.4-2.9,2.7c-1.3,0.8-2,1.2-2.3,1.3c-0.3,0-0.4,0-0.4,0.1c-0.8,0-1.8-0.4-3-1.2
		c-1.6-1.5-2.4-3.6-2.4-6.5v-0.3c0-0.2,0-0.5,0-0.8v-0.1h0c-0.2,0.8-0.3,1.2-0.4,1.2l-0.1-0.2v-0.5l0.4-2.4c0.1-0.9,0.1-1.4,0.2-1.4
		V38c-0.2-0.3-0.3-0.5-0.3-0.5c0.3-1.2,0.4-1.8,0.4-1.9h-0.2c-0.1,0-0.1,0-0.1-0.1v-0.1c0.4-1,0.9-2,1.5-2.9
		c0.4-0.4,0.6-0.7,0.6-0.9l-0.1-0.2c0.2-0.5,0.8-1.1,1.6-1.7c0.2-0.3,0.9-0.7,2-1.2c0.4-0.5,1-0.7,2-0.7v-0.3c0-0.1,0-0.1,0.1-0.1
		v-0.1L274.5,27.2z M277.2,32.2l0,0.1l0.5,0.6v0.2c-0.1,0-0.2,0.1-0.2,0.1v0.1c0.1,0.2,0.2,0.4,0.2,0.6v0.3h-0.2
		c-0.3-0.6-0.7-1.1-1-1.5c-0.4,0.1-0.7,0.1-0.8,0.1c-0.1,0-0.3-0.1-0.7-0.4c0,0.3-0.4,1.1-1.3,2.4c-0.2,0.6-0.8,1.4-1.5,2.2
		c-0.7,1.2-1,2.2-1,3.2c-0.1,1.5-0.2,2.3-0.4,2.3l-0.2,0.4c0,0.1,0.1,0.5,0.1,1.2c0.4,1.1,0.8,1.6,1.2,1.6c0.3,0.2,0.7,0.3,1,0.3
		c0.1,0,0.6-0.2,1.6-0.6c0.5,0,0.9-0.2,1.1-0.6c0.4-0.3,0.7-0.9,1-1.7c0.1-1,0.2-1.7,0.4-2c0.5-1.2,0.8-2.1,0.8-2.7
		c0.1-0.3,0.3-0.5,0.5-0.8c0.1-0.3,0.2-0.7,0.2-1s0-1-0.1-1.9c0-0.1,0-0.1,0-0.2h0.1c0,0,0.2,0.2,0.4,0.5h0.1c0.1,0,0.1,0,0.1-0.1
		c-0.2-0.8-0.7-1.6-1.4-2.2C277.4,32.3,277.3,32.3,277.2,32.2z M272.7,35.6v0.1c0.1,0,0.1,0,0.1-0.1H272.7z M279.7,42.1v0.1h0
		L279.7,42.1L279.7,42.1z"/>
	<path class="st0" d="M295.2,27c0.8,0.1,1.3,0.1,1.3,0.2c0,0,0,0,0-0.1c0.8,0.1,1.7,0.6,2.7,1.6c0,0,0.3,0.6,1,1.7
		c0.1,0.1,0.1,0.2,0.1,0.3c0,0.4-0.1,0.5-0.1,0.5l0,0.4v0.3c-0.3,1-0.5,1.5-0.5,1.6l0.1,0h0.1c0,0,0.2,0.1,0.3,0.4v0.1
		c0,0.3-0.1,0.4-0.4,0.4h-0.1c-0.1,0-0.1-0.1-0.2-0.4v-0.2h-0.1l-0.1,0.1h-0.6c-0.1,0.3-0.3,0.4-0.5,0.4c-0.1-0.2-0.1-0.3-0.1-0.3
		c-0.1,0-0.2,0.3-0.3,1c-0.1,0.2-0.2,0.4-0.3,0.4c-0.1,0-0.1-0.1-0.1-0.3v-0.2c0-0.3,0-0.7,0-1c0-0.2-0.2-0.8-0.6-1.6
		c0-0.1,0-0.2,0-0.3l0-0.5c0-0.2-0.2-0.3-0.6-0.3h-0.1c-0.7,0.2-1.7,0.9-3.2,2c-0.2,0.3-0.7,0.9-1.4,1.8c-0.2,0.3-0.5,1.1-1,2.4
		c-0.5,1-0.9,1.6-1.2,1.8c-0.1,0.2-0.2,0.7-0.4,1.7c-0.3,0.7-0.4,1.3-0.4,1.8h0c0,0,0.1-0.1,0.2-0.1c0,0.1,0,0.1,0,0.1
		c-0.2,0.9-0.2,1.6-0.2,2c0,0.1,0.1,0.1,0.2,0.3c0.1,0.4,0.2,0.7,0.2,0.7v0.3c0,0.2,0,0.3,0,0.5c0,0.1,0.1,0.5,0.3,1.2
		c0,0.1-0.2,0.4-0.5,0.9c0.1,0.2,0.2,0.3,0.2,0.3c-0.1,0.2-0.2,0.6-0.2,1l0.1,0.3c0.4-0.4,0.8-0.8,1.4-1.2c0.1,0,0.7-0.6,1.9-1.8
		c0.9-0.4,1.4-0.9,1.4-1.5c0.1-0.6,0.1-1.2,0.1-1.6c0,0,0,0,0-0.1c-0.1,0.1-0.5,0.3-1,0.3c-0.1,0-0.3-0.1-0.6-0.4
		c-0.2,0-0.4-0.2-0.7-0.6c-0.6-0.2-0.9-0.6-0.9-1c0.1-0.1,0.1-0.3,0.2-0.5c0,0-0.1-0.2-0.4-0.5v-0.1l0.2-0.1h0.2v-0.2
		c0-0.1-0.2-0.2-0.6-0.3l-0.6-0.4c0-0.1,0.1-0.2,0.3-0.2c0.4,0.3,0.9,0.4,1.4,0.4h0.1c0.8-0.3,1.2-0.4,1.2-0.4h0.1
		c0.8,0.2,1.3,0.4,1.5,0.4c0.1,0,0.4-0.1,1.1-0.4c0.1,0,0.3,0.2,0.5,0.4c0.1,0.1,0.2,0.1,0.2,0.1c0.8,0,1.2-0.2,1.2-0.5
		c0.2-0.1,0.5-0.1,1-0.1c0.1-0.1,0.1-0.2,0.1-0.2h0.1c0,0.2,0.3,0.4,0.9,0.6h0.1l0.6-0.1c0.1,0.1,0.2,0.1,0.3,0.3v0.1
		c-0.1,0-0.2,0.1-0.3,0.2v0.1c0.2,0.1,0.4,0.1,0.5,0.1h0.4c0,0,0,0,0,0.1l0.1-0.1h1l0.3,0.1c0-0.1,0.2-0.1,0.6-0.1l0.1,0.2V41
		c0,0.1-0.4,0.2-1.3,0.2c-1.3,0.4-2,0.5-2.1,0.5c-0.1,0.3-0.2,0.4-0.5,0.4c-0.4,0-0.8,0.1-1.1,0.4c0,0,0.1,0.1,0.1,0.2
		c0,0-0.2,0.1-0.4,0.3c-0.1,0.6-0.3,0.9-0.5,0.9c-0.3,0.6-0.5,1-0.5,1.3c0.1,0.1,0.1,0.2,0.1,0.2c0,0.6-0.2,0.9-0.5,0.9v0.1
		c0,1.7-0.3,2.7-0.9,3.1c-0.2,0.2-0.3,0.6-0.3,1v0.3c0,0.1,0.1,0.3,0.2,0.4v0.1c-0.3,1.2-0.5,1.7-0.8,1.7c-0.1,0-0.2,0.4-0.4,1.1
		l-0.2,0.2l-0.1-0.2v-0.3c-0.2,0-0.3,0.2-0.3,0.6c-0.4,1-0.7,1.8-0.9,2.5h-0.1c-0.1,0-0.1,0-0.1-0.1c0-0.4,0.2-1.3,0.5-2.6l-0.1-0.5
		c0.1-0.2,0.1-0.4,0.1-0.5c0-0.1-0.1-0.3-0.3-0.7c0.1-0.8,0.2-1.4,0.2-1.5l-0.1,0.1h-0.1c-0.1,0-0.1-0.1-0.1-0.2
		c0.1-0.2,0.2-0.5,0.2-0.9c-0.7,0.8-1.1,1.2-1.2,1.3v0.1h0c0.1-0.1,0.2-0.1,0.3-0.1h0.1v0.1c-0.1,0-0.5,0.4-1.3,1.1
		c0.1,0,0.2,0.1,0.2,0.3c-0.3,0.1-0.9,0.2-1.7,0.3c-1.8,0-3-0.8-3.8-2.4c-0.4-0.8-0.6-1.9-0.6-3.1l0-0.2c0,0,0-0.1,0-0.1l0-0.3v-0.5
		l-0.2-0.8c0-0.5,0.4-2.6,1.2-6.2v-0.1c0-0.1,0-0.2,0-0.4c0.2-0.5,0.4-0.9,0.4-1.3c0.1,0,0.3-0.4,0.4-1.3c0.1-0.1,0.4-0.4,1-0.8
		c0.6-1.5,0.9-2.3,1-2.4c0.4-0.5,0.8-1.2,1.4-2.1c1-1.1,1.6-1.9,2.1-2.6c1.2-1,2.2-1.5,3.1-1.5H295.2z M286.6,52.5
		c0.2,0,0.3,0.1,0.3,0.4h-0.1c-0.1,0.1-0.2,0.1-0.3,0.1c-0.1-0.1-0.1-0.2-0.1-0.2C286.4,52.7,286.4,52.6,286.6,52.5z M289.4,41.5
		h0.2c0.2,0,0.4,0.1,0.4,0.4V42c-0.2,0.2-0.3,0.3-0.5,0.3c-0.2-0.1-0.3-0.2-0.3-0.4v-0.1C289.3,41.6,289.4,41.5,289.4,41.5z
		 M289.7,38.4l-0.1,0.2h0L289.7,38.4L289.7,38.4z M291.2,51.9L291.2,51.9c0,0.1,0.1,0,0.1-0.1h-0.1
		C291.3,51.8,291.2,51.9,291.2,51.9z M291.7,52.1l0.1,0.3c0,0.1-0.1,0.2-0.3,0.2c0,0,0-0.1,0-0.1c0,0,0,0.1-0.1,0.1
		c-0.1-0.1-0.1-0.3-0.1-0.3C291.5,52.1,291.6,52.1,291.7,52.1z M293.6,27.5l0,0.1c0.1,0,0.1-0.1,0.1-0.1v-0.1H293.6z M294.1,32
		L294.1,32l0.1,0.1c0-0.1,0.1-0.1,0.2-0.2v-0.1C294.2,31.9,294.1,32,294.1,32z M296.8,38.8c0.3,0,0.5,0.1,0.5,0.4
		c0,0.2-0.1,0.4-0.3,0.5h-0.1c-0.2-0.1-0.3-0.3-0.3-0.5V39C296.6,39,296.6,38.9,296.8,38.8z M297.4,43.7v0.1h0L297.4,43.7
		L297.4,43.7z M297.8,36h0.3v0.3l-0.1,0.1h-0.2c0-0.1,0-0.2-0.1-0.2C297.7,36,297.7,36,297.8,36z M298.5,38.3c0,0.1,0.1,0.1,0.2,0.2
		c-0.1,0.2-0.1,0.3-0.2,0.3h-0.2l-0.1-0.3v0C298.3,38.4,298.4,38.3,298.5,38.3z M299,34.6h0.2c0.2,0.2,0.3,0.4,0.3,0.4
		c0,0.3-0.2,0.5-0.5,0.5H299c-0.1-0.1-0.3-0.2-0.5-0.2l0-0.3c0.2-0.1,0.2-0.1,0.2-0.1l0.2,0.1C298.8,34.7,298.9,34.6,299,34.6z"/>
	<path class="st0" d="M295.5,39.4h0.1c0.1,0,0.1,0.1,0.1,0.1v0.2c0,0.1,0,0.1-0.1,0.1h-0.2l-0.1-0.3
		C295.4,39.5,295.4,39.4,295.5,39.4z M305.2,27.4c0.4,0.1,1.1,0.1,2.2,0.2c1.1,0.3,2.1,0.7,2.9,1.3c1.2,1,1.8,1.6,1.9,2
		c0.1,0,0.2,0.2,0.4,0.5c0.3,0.2,0.6,0.7,0.7,1.2c0.2,1,0.3,1.6,0.3,1.8c0,1.1-0.7,2.8-2.1,4.9l-2.3,2.4c-0.1,0.1-0.4,0.3-1,0.7
		c0,0.2-0.5,0.5-1.3,0.8c-0.1,0.1-0.2,0.1-0.2,0.2c0.5,0.4,1.2,1,2,1.8c0.2,0,0.3,0.1,0.4,0.4c0.1,0,0.3,0.4,0.6,1.1
		c0,0,0.2,0.3,0.6,0.9c0.2,0,0.5,0.1,1,0.4c0.4,0,0.7,0.2,0.9,0.7c0.1,0.2,0.4,0.5,0.7,0.8c0,0.3,0.1,0.4,0.1,0.5
		c-0.1,0-0.1,0.1-0.2,0.1v0.1c0,0.1,0.3,0.5,1,1.1v0.1c0,0.1-0.2,0.1-0.5,0.2c0,0.3,0.2,0.5,0.6,0.8c0,0.1,0.2,0.4,0.7,0.9
		c0.1,0.4,0.3,0.7,0.4,0.8c0.2,0,0.3,0.2,0.6,0.6h-0.3c0-0.1-0.4-0.5-1.2-1.1c-0.8-1.1-1.5-1.6-2.1-1.6c0,0,0-0.1-0.1-0.1v-0.1
		c0.1,0,0.2,0,0.2-0.1c-0.4,0-0.8-0.2-1.2-0.6c-0.2-0.2-0.4-0.4-0.7-0.4c0-0.1,0-0.2-0.1-0.2h-0.1l-0.1,0.2h-0.2
		c-0.4-0.6-1.1-1.3-2.2-2.2c-0.2-0.4-0.6-0.5-1.2-0.5c-0.5-0.2-0.9-0.6-1.2-1.1c-0.1,0-0.3-0.2-0.6-0.5c-0.1,0-0.5-0.4-1.4-1.2
		c-0.4-0.3-0.8-0.5-1-0.5h-0.2c-0.1,0-0.3,0.5-0.6,1.2c-0.1,0-0.2,0.3-0.2,0.9v0.5l0.2,0.6v0.1c0,0.4-0.3,1.2-0.9,2.5
		c-0.1,0-0.2,0-0.3-0.1c-0.3,1.2-0.6,1.8-0.6,1.8c-0.2-0.2-0.3-0.4-0.3-0.4c-0.2,0-0.3,0.1-0.3,0.3c0,0.3-0.4,1-1.1,2.2
		c-0.2,0.8-0.4,1.2-0.4,1.2l-0.1-0.2c0-0.1,0.4-1.2,1.1-3.2l0.1-0.6c-0.1-0.3-0.1-0.6-0.1-0.9h0.1c-0.1-0.3-0.2-0.5-0.2-0.6
		c0-0.2,0.1-1,0.2-2.4l-0.1,0.1h-0.2v-0.1c0.1-0.8,0.5-2,0.9-3.5l0.1-0.8c-0.3-0.1-0.6-0.4-0.9-0.8l0-0.4v-0.4l0.1-0.1
		c-0.8-0.2-1.2-0.4-1.2-0.4c0,0,0.1,0,0.2-0.1c0.3,0,0.5,0.1,0.7,0.1h0.2c0.1,0,0.1-0.1,0.2-0.2c-0.9-0.3-1.7-0.7-2.2-1.2h0.2
		c0.5,0.2,1.2,0.4,2,0.4v-0.1c0-0.1,0-0.1,0-0.1l0-0.3V39c0-0.3,0.2-0.6,0.5-0.7l0.2-0.2V38c-0.1-0.2-0.2-0.4-0.2-0.5
		c0-0.1,0-0.1,0.1-0.1c0,0.2,0.2,0.3,0.5,0.4v-0.3c0-0.3-0.2-0.8-0.5-1.5v-0.2h0.2c0.5,1,0.8,1.5,1.1,1.5c0.2-0.4,0.3-1.1,0.3-2.3
		c0-0.2,0.1-0.4,0.3-0.6V34c0-0.3,0.1-0.7,0.3-0.9c0-0.1,0-0.2-0.1-0.4c0.3-0.7,0.9-1.3,1.9-1.7c0.5,0,0.8-0.1,0.8-0.3v-0.1
		c-0.2,0-0.3,0-0.3-0.1l-0.7,0.1c-0.3-0.1-0.7-0.2-1-0.3v-0.1l0.1-0.2h-0.3c-0.4,0.2-1,0.3-1.8,0.3c-0.1,0-0.3-0.1-0.4-0.1v-0.2
		c0.1,0,0.3-0.1,0.3-0.2c-0.1-0.1-0.2-0.2-0.2-0.3c-1.2,0.3-2,0.6-2.4,0.9c-0.3,0.3-0.6,0.5-0.7,0.5c-0.1,0-0.1,0-0.2-0.1
		c-0.6,0.4-0.9,0.6-1,0.6v-0.2c2.5-1.7,4.1-2.5,4.8-2.5l-0.1-0.1c0,0,0.5-0.2,1.4-0.6h0c0,0.1-0.1,0.2-0.4,0.2v0.1l0.3,0.1
		c0.4-0.4,1-0.6,1.8-0.6c0.6-0.2,1.3-0.3,2.2-0.3v-0.1c-0.1,0-0.2,0-0.2-0.1V27.4z M296.4,41.1c0.2,0,0.3,0.1,0.5,0.4v0.2
		c-0.2,0.2-0.4,0.2-0.5,0.2h-0.1c-0.1,0-0.1-0.1-0.2-0.2v-0.5L296.4,41.1z M298,36.7c0.2,0.1,0.4,0.3,0.4,0.5v0.2l-0.4,0.1h-0.2
		c-0.1-0.3-0.2-0.5-0.2-0.5C297.8,36.8,298,36.7,298,36.7z M298.4,34.9h0.2c0.1,0,0.1,0.1,0.1,0.1v0.2c0,0.1,0,0.1-0.1,0.1h-0.1
		c-0.1,0-0.1,0-0.1-0.1L298.4,34.9z M298.4,50L298.4,50l0,0.2h0V50z M301.7,31.2h0.2l0,0.3v0.1l-0.3,0.1l-0.1-0.3
		C301.6,31.3,301.6,31.2,301.7,31.2z M302.2,29.2L302.2,29.2l0.3,0.1v-0.1H302.2z M306.7,30.6c0,0-0.1,0-0.3-0.1
		c-0.5,0.1-0.7,0.1-0.7,0.3v0.4c0.1,0.4,0.2,0.8,0.2,1.4c0,0.7-0.1,1.1-0.4,1.1c0,0.3-0.1,0.5-0.3,0.5v0.3c0,0.1-0.2,0.7-0.7,1.8
		v0.2c0,0,0,0.3,0.1,0.8c-0.1,0.2-0.3,0.7-0.7,1.5c-0.1,0.2-0.1,0.5-0.1,0.8c0.2,0.1,0.5,0.2,0.9,0.2c0.8-0.2,1.7-0.4,2.6-0.8
		c0-0.2,0.2-0.5,0.5-0.8c0.3-0.1,0.7-0.3,1.1-0.7c0.4,0,0.7-0.4,1-1.1c0.1-0.2,0.3-0.7,0.6-1.7l-0.1-0.1c0-0.1,0.1-0.3,0.1-0.4
		c-0.5-1.7-1.1-2.8-2-3.3c-0.2-0.1-0.3-0.1-0.3-0.2l0.1-0.1c-0.1,0-0.2-0.1-0.5-0.2C307.2,30.5,306.9,30.6,306.7,30.6z M305.5,31.5
		c0,0.1,0.1,0.1,0.1,0.2h0v-0.2H305.5z M308.5,37.6v0.1c0.1,0,0.1-0.1,0.2-0.1v-0.1H308.5z M310.6,39.8v0.1h0.1L310.6,39.8
		L310.6,39.8z M311.1,39.4l-0.1,0.1v0.1h0.1C311.1,39.5,311.1,39.5,311.1,39.4L311.1,39.4z"/>
	<path class="st0" d="M322.4,22.2L322.4,22.2c0.1,0,0.2,0.6,0.2,1.8c0.2,0,0.2,0.1,0.2,0.3v0.1c0,0.1-0.1,0.1-0.2,0.2v0.2
		c0,0.3,0.1,0.6,0.2,0.7v0.1c-0.1,0.5-0.1,0.8-0.1,0.8c0.1,1,0.2,1.9,0.2,2.6v0.2c0,0.7-0.1,1.4-0.4,2.3c-0.1,0.4-0.1,1.1-0.2,2.2
		c0.1,0.8,0.2,1.3,0.2,1.5v0.1c0,0.3-0.2,0.6-0.5,1.1l0,0.3l0.2,1.4v0.9c0,0.2,0,0.3,0,0.5l0.1,0.8c-0.1,0.5-0.2,1.4-0.3,2.8
		c0.6,0.3,0.9,0.6,0.9,0.9v0.4c0.4,0,0.5,0.1,0.5,0.4v0.1c-0.1,0-0.2,0.1-0.2,0.2c0,0.1,0.2,0.2,0.6,0.2h0.4l0.2,0.1v0.2
		c-0.5,0.1-0.9,0.2-1.3,0.5c-1.1,0.2-1.7,0.4-1.8,0.4c-0.1,0-0.1,0.1-0.1,0.3v0.7c0.1,0.5,0.2,0.8,0.2,1c0,0.1-0.1,1.1-0.4,3
		c-0.4,0.5-0.6,1.2-0.6,2c-0.1,0.6-0.2,0.8-0.3,0.8c-0.1,0-0.1-0.2-0.1-0.7h-0.1c-0.1,0.2-0.3,0.9-0.4,1.9c-0.3,0.9-0.6,1.6-0.7,2.3
		h-0.1v-0.1c0-0.7,0.1-1.7,0.4-3.1c-0.1-0.2-0.1-0.5-0.1-0.9c0.1-0.5,0.1-0.8,0.1-1c0-0.1-0.1-0.4-0.3-0.9c0.1-0.7,0.2-1.2,0.2-1.5
		c0-0.4,0-0.8-0.1-1.2l-0.2,0.2h0l0-0.3c0-0.3,0.1-1.3,0.2-2.9c-0.2,0-0.3-0.1-0.4-0.1c-0.8,0.1-1.3,0.2-1.4,0.2v-0.1
		c-0.1-0.2-0.3-0.3-0.5-0.3h0c-0.6,0.1-0.9,0.3-0.9,0.5c-0.2,0.4-0.4,0.8-0.5,1.4c-0.6,0.5-1,1-1.1,1.5c0,0.3-0.2,0.6-0.4,0.8
		c-0.1,0-0.1,0-0.1-0.1v-0.3l0-0.3h-0.2c-0.4,1-0.8,1.8-1.4,2.6c-0.2,0.5-0.3,0.8-0.4,0.8h0l0-0.3c0.1-0.2,0.2-0.6,0.4-1.2
		c0.5-0.7,0.8-1.4,0.8-2.2c0.2-0.5,0.3-0.8,0.3-0.9c-0.1-0.4-0.2-0.6-0.2-0.6c0.3-0.8,0.4-1.3,0.4-1.5c-0.1,0-0.4-0.1-1-0.4h0
		c-0.8,0.2-1.2,0.4-1.2,0.6l-0.5,0.1h-0.9c-0.1,0-0.3-0.1-0.7-0.4h-1.1l0-0.3c0.1,0,0.2-0.1,0.3-0.3l-0.4-0.1c0,0-0.2,0-0.4,0.1
		c0,0-0.1,0-0.4-0.1c-0.3,0.1-0.7,0.1-1,0.1h-0.8V45c0-0.2,0.8-0.4,2.4-0.6c0.8-0.3,1.3-0.5,1.3-0.7c0-0.1,0.4-0.2,1.3-0.3l0.1-0.2
		l-0.1-0.2v-0.2c1.7-0.2,2.9-0.3,3.6-0.4c0.2-0.1,0.4-0.6,0.6-1.4c0.3-0.7,0.5-1.2,0.5-1.3c0-0.1,0-0.4-0.1-0.7
		c0.3-1,0.9-2.6,1.8-4.7c0.1-0.2,0.2-0.8,0.4-1.8c0.2-0.1,0.3-0.5,0.4-1.2c0.2-0.3,0.5-1,0.6-2.1c0.2-0.3,0.5-0.6,0.9-0.9
		c0-0.2,0.2-0.4,0.6-0.6c0-0.4,0.2-0.9,0.6-1.5c0.3-1.3,0.6-1.9,0.9-1.9c0.2,0.1,0.4,0.1,0.4,0.1c0.2-0.1,0.3-0.5,0.3-1.1l0.2-0.1
		c0.1,0.1,0.2,0.4,0.2,0.8c0.1,0,0.2-0.6,0.4-1.8L322.4,22.2z M307.6,45.4v0.1h0L307.6,45.4L307.6,45.4z M310.1,43.1L310.1,43.1
		L310.1,43.1L310.1,43.1L310.1,43.1z M313.5,49.3v0.1h0L313.5,49.3L313.5,49.3z M318.9,36c-0.4,1.7-0.7,2.8-0.9,3.3
		c-0.2,0.2-0.5,0.9-0.9,2.1c-0.2,0.3-0.3,0.5-0.4,0.7h0.2c0.3-0.1,0.8-0.3,1.8-0.3l0-0.3v-0.8c0-0.7,0.1-1.6,0.3-2.9v-1.6L318.9,36
		L318.9,36z M318.6,48.3L318.6,48.3L318.6,48.3L318.6,48.3L318.6,48.3z M320.8,22.1c0.2,0,0.3,0.1,0.3,0.4v0.2l0,0.3h-0.4
		c-0.2-0.2-0.3-0.3-0.3-0.4C320.5,22.2,320.6,22.1,320.8,22.1z M322,21c0,0,0.1,0.1,0.2,0.2c-0.1,0.2-0.1,0.2-0.2,0.3h-0.2l0-0.3
		v-0.2C321.9,21.1,321.9,21.1,322,21z M322.6,29.9v0.2h0C322.7,29.9,322.7,29.9,322.6,29.9L322.6,29.9z M323.6,42.9h0.4
		c0.1,0.2,0.1,0.4,0.1,0.5v0.2c-0.2,0.1-0.3,0.1-0.4,0.1h-0.2l0-0.4v-0.1C323.6,43,323.6,42.9,323.6,42.9z M324.9,44.2h0.3l0,0.3
		v0.2h-0.3c-0.1,0-0.1-0.1-0.1-0.2L324.9,44.2z"/>
	<path class="st0" d="M336.8,18.9l0.1,0.5c-0.2,1.8-0.4,3.1-0.5,3.9c0,0.5,0.1,1,0.1,1.4c-0.1,0.7-0.2,1.3-0.2,1.6v0.2l0.2,1.2
		c-0.3,2.4-0.4,3.9-0.4,4.4v0.1h0c0.1-0.2,0.2-0.3,0.2-0.3h0c0.1,0,0.1,0,0.1,0.1c-0.3,2-0.6,3.7-0.9,5.1c-0.7,3.2-1,4.9-1,5.1
		c0,0.1,0,0.5,0.1,0.9c-0.3,1.6-0.5,2.6-0.5,2.8v0.9c0,0.2-0.1,0.4-0.4,0.7v0.9c-0.3,0.3-0.5,0.7-0.8,1.1c-0.2,0-0.3,0.2-0.4,0.5
		c0,0-0.3,0.2-0.7,0.6h-0.1l-0.5-0.2c-0.5,0.1-0.7,0.1-0.7,0.1v-0.3c0-0.1,0-0.1-0.1-0.2c-0.2,0-0.4,0.2-0.5,0.6
		c-0.2,0.3-0.4,0.5-0.6,0.5l0-0.1l0.1-0.4c-0.1-0.1-0.2-0.1-0.2-0.2v-0.2c0-0.1,0-0.1,0.1-0.1h0.2l0.1,0.1c0.2-0.6,0.3-1,0.3-1.3
		h-0.1c-0.2,0.2-0.3,0.3-0.3,0.3h-0.1c-0.1,0-0.1,0-0.1-0.1v-0.1c0.3-0.5,0.4-0.8,0.4-1c-0.2-0.6-0.7-1.3-1.4-2.3
		c-0.2-0.4-0.4-1.1-0.7-2.1c-0.4-0.6-0.6-1.2-0.6-1.7c-0.4-1-0.7-1.5-0.8-1.6c-0.2,1.2-0.5,2-0.9,2.4c-0.3,0.2-0.4,0.8-0.4,1.6
		c0,0.1,0.1,0.3,0.2,0.7c-0.4,1.5-0.7,2.3-1,2.3c-0.1,0-0.3,0.5-0.5,1.4l-0.2,0.2h-0.1l0-0.3v-0.2H323c-0.8,2.2-1.1,3.4-1.1,3.7
		h-0.1c-0.1,0-0.1,0-0.1-0.1v-0.1c0.1-0.6,0.3-2.1,0.6-4.4l-0.2-0.6c0.1-0.6,0.2-1.2,0.3-1.9h0c-0.1,0.1-0.2,0.1-0.3,0.1v-0.1
		c0-0.4,0.1-1,0.4-1.8c0-0.2,0.2-1.1,0.5-2.5c0-0.1-0.1-0.3-0.2-0.6l1.1-4.4c0-0.3-0.1-0.5-0.1-0.6v-0.2c0-0.1,0.2-0.7,0.5-1.7
		c0-1,0.1-1.4,0.3-1.4l1.7-2l-0.1-0.4v-0.3l0.2-0.1c0,0.2,0.1,0.4,0.4,0.4c0-0.2,0-0.5,0.1-1l-0.1-0.3v-0.1c0.1-0.2,0.2-0.3,0.4-0.3
		c0.2,0,0.3,0.2,0.3,0.5c-0.1,0.3-0.1,0.5-0.1,0.5v0.2l0,0.6h0.1c0-0.1,0.1-0.2,0.1-0.2h0.1c0.1,0.3,0.1,0.5,0.1,0.5
		c0.3-0.2,0.6-0.7,0.8-1.4h0.1l0.1,0.3v0.1c-0.4,1.3-0.7,2.3-0.7,2.9c0,0,0,0,0,0.1c0,0.2,0,0.4,0,0.5v0.1l-0.2,0.9
		c0,0.1,0.2,0.6,0.7,1.4c0.9,2.4,1.3,4.4,1.3,5.8c0.3,0.9,0.5,1.9,0.7,2.9h0.1c0.5-2.6,0.8-4.1,1.1-4.4c0.4-0.5,0.7-1.9,1-4.2v-0.4
		l-0.1-1.1c0.5-2.2,0.7-3.4,0.7-3.6c0-0.5,0.2-1.2,0.7-2.3c0.1-0.5,0.3-1.6,0.5-3.2c0.1-0.2,0.2-0.3,0.2-0.3h0
		c0.1,0.2,0.1,0.4,0.1,0.5v0.5c0.1,0,0.3-0.7,0.4-2c0.5-2.2,0.7-3.4,0.7-3.6C336.7,19,336.7,18.9,336.8,18.9z M322.2,44.6v0.1h0
		L322.2,44.6L322.2,44.6z M325.4,27.6h0.4c0.1,0.2,0.1,0.4,0.1,0.5v0.2c-0.1,0.2-0.2,0.2-0.3,0.2c-0.1-0.2-0.3-0.2-0.3-0.2v-0.5
		C325.3,27.7,325.3,27.7,325.4,27.6z M326.8,26.3h0.2c0.1,0,0.1,0.1,0.2,0.3c-0.1,0.1-0.2,0.2-0.3,0.2h-0.1v-0.1L326.8,26.3z
		 M328.9,26.9h0.2l0,0.3v0.1c0,0.1,0,0.1-0.1,0.1h-0.2c-0.1,0-0.1,0-0.1-0.1V27C328.8,26.9,328.8,26.9,328.9,26.9z M329.2,52h0.2
		l0,0.3v0.1l-0.2,0.1h-0.1c0-0.1,0-0.2,0-0.2C329.1,52.1,329.1,52,329.2,52z M329.9,38.5v0.1c0,0.1,0.1,0.1,0.1,0.2h0v-0.1
		C330,38.6,330,38.5,329.9,38.5L329.9,38.5z M330.7,51.2h0.4c0.1,0.4,0.1,0.6,0.1,0.6c0,0.2-0.1,0.3-0.2,0.4h-0.1
		c-0.3,0-0.4-0.2-0.4-0.5C330.6,51.4,330.7,51.3,330.7,51.2z M335.2,24.2v0.2h0.1L335.2,24.2L335.2,24.2z M336.2,32.4
		c0,0.1,0,0.2-0.1,0.2h0.1L336.2,32.4L336.2,32.4z"/>
	<path class="st0" d="M343.8,25.4h0.1c0.1,0.5,0.2,1,0.3,1.4c0.1,0.1,0.1,0.3,0.1,0.5v0.4c0.3,0.4,0.9,1,1.8,1.6
		c2.1,2.3,3.2,4.4,3.2,6.1c0,0.4-0.1,0.7-0.3,0.9v0.3c0,1.4-0.3,2.7-1,4.1c-1,1.4-1.6,2.4-2,2.9c-0.6,0.6-1.2,1.2-1.8,2
		c-0.1,0-0.6,0.6-1.6,1.6c-0.3,0.2-1,0.6-2,1.2c-1,1-1.8,1.8-2.6,2.4c-0.5,0.8-0.8,1.2-1,1.2c-0.5,0.3-0.8,0.6-0.8,0.6
		c-0.3,1.1-0.7,1.7-1.2,1.7c-0.3,0.6-0.5,0.9-0.6,1h-0.1l0-0.1v-0.4h-0.1c-0.7,1.3-1.2,2.2-1.3,2.7l-0.2,0.1l0-0.1
		c0-0.2,0.3-1.1,0.9-2.7c0-0.1,0-0.3,0-0.6h0c-0.1,0.1-0.6,0.2-1.4,0.4c-0.6,0.4-1.6,0.9-2.9,1.7c0,0-0.1,0-0.1,0.1
		c-0.1,0-0.1-0.1-0.1-0.1v-0.2c0.4-0.2,0.6-0.4,0.8-0.8c-0.2,0-0.7,0.3-1.7,1c-0.2,0.1-0.7,0.4-1.7,0.9c-0.6,0.1-1.2,0.3-1.7,0.5h0
		l0-0.1v-0.1c0.6-0.4,1.3-0.8,2.2-1.1c1.1-0.7,1.9-1.3,2.5-2c0.5-0.1,1.2-0.7,2-1.8c0.2-0.2,1-0.7,2.3-1.5c0.6-0.6,0.9-1.2,0.9-1.6
		c-0.1-0.1-0.2-0.2-0.3-0.4c0.3-0.8,0.4-1.3,0.4-1.3c-0.1,0.1-0.2,0.1-0.3,0.1h0l-0.2-0.4H334c0,0.1-0.2,0.4-0.7,0.8h-0.2v-0.1
		c0.1-0.4,0.4-0.9,0.7-1.6l-0.2-0.1c0-0.2,0.2-0.9,0.7-1.9c0.2-1.1,0.4-2,0.6-2.5c0.7-0.6,1.1-1.4,1.1-2.5c0-0.2,0.2-0.4,0.5-0.6
		c0.1,0,0.3-0.7,0.5-2.2c0.7-1.5,1.1-2.3,1.5-2.3c0.1-0.2,0.3-0.5,0.4-1.2c0-0.2,0-0.3,0-0.5v-0.3c0.4-0.6,0.7-1.1,0.7-1.6l0.2-0.9
		l-1.1-0.5c-1.9-0.5-2.9-0.8-3.1-0.9c-0.1-0.1-0.1-0.3-0.1-0.4c0.1,0,0.1-0.2,0.1-0.5c-0.6-0.1-1.1-0.2-1.7-0.2l0-0.3v-0.1l0.3-0.1
		c0,0,0,0.1,0,0.1v-0.1l0.3,0.1h0.2c0.2,0,0.3-0.1,0.4-0.2c-0.2-0.1-0.8-0.1-1.8-0.2c-0.2-0.2-0.4-0.3-0.4-0.4v-0.1
		c0.1,0,0.4,0,0.8,0.1c0.4-0.1,0.8-0.1,1-0.1h1.5c1-0.1,1.5-0.1,1.6-0.1h1.3c1,0,2.1,0.2,3.2,0.7l0.6,0.2c0-0.3,0-0.5,0.1-0.5h0.1
		c0.1,0.3,0.2,0.5,0.2,0.5c0.1,0,0.1-0.1,0.1-0.1l0-0.1v-0.4C343.7,25.8,343.8,25.4,343.8,25.4z M329.4,55.8c0,0.1,0,0.1,0.1,0.1
		l0-0.1H329.4z M332.3,26.6h0.2l0,0.3v0.1l-0.3,0.1l0-0.1v-0.2C332.2,26.7,332.2,26.6,332.3,26.6z M332.9,49.1h0.2l0,0.3v0.1
		l-0.2,0.1h-0.1l0-0.3v-0.1C332.8,49.1,332.9,49.1,332.9,49.1z M333.1,27.9L333.1,27.9c0.4,0,0.6,0.1,0.6,0.3
		c-0.1,0.3-0.2,0.4-0.4,0.4h-0.1c-0.1,0-0.1-0.1-0.1-0.3v-0.1L333.1,27.9z M343.6,31.9c0,0.3-0.3,0.7-0.7,1.2c0,0.1-0.2,0.6-0.7,1.7
		c-0.1,1.3-0.3,2-0.6,2c-0.3,0.2-0.5,0.6-0.5,1.3c-0.4,1.2-0.6,2-0.6,2.3c-0.3,0.4-0.6,1.1-0.8,1.9c0,0-0.1,0.1-0.3,0.4l0,0.4v0.1
		c0,0.1-0.3,0.7-0.8,1.8c0,0.2,0,0.4,0,0.6v1.2h0c1.2-1,2.3-2,3.3-3.3c0.1,0,0.3-0.3,0.5-0.9c0.6-0.5,1.7-1.8,3.4-4
		c0.3-0.7,0.5-1.3,0.5-1.8v-0.5c0-1.3-0.7-2.5-2-3.6C344.2,32.2,343.9,32,343.6,31.9z M342.4,25.6c0.2,0,0.4,0.1,0.4,0.3
		c0,0.1,0,0.2,0,0.3c0,0.2-0.1,0.3-0.3,0.3c-0.2-0.2-0.4-0.3-0.4-0.4C342.1,25.8,342.2,25.7,342.4,25.6z M343.4,24.4h0.2l0,0.3v0.1
		l-0.2,0.1h-0.1l0-0.2C343.3,24.4,343.3,24.4,343.4,24.4z M343.3,32.1c0,0,0,0.1,0,0.2v0.1h0C343.3,32.3,343.3,32.3,343.3,32.1
		L343.3,32.1L343.3,32.1z"/>
	<path class="st0" d="M341.9,47.1h0.2c0.1,0,0.1,0,0.1,0.1v0.1c0,0.1,0,0.1-0.1,0.2h-0.1V47.1z M354.9,26.5L354.9,26.5
		c0.1,0,0.1,0,0.1,0.1v0.1c-0.1,0.3-0.1,0.5-0.1,0.6v0.2c0,0.1,0.1,0.2,0.3,0.2l0.3-0.3c0.1,0,0.2,0,0.4,0.1c0.3,0,0.5-0.1,0.7-0.1
		h0.1l1.4,0.5c0,0.1,0,0.1,0.1,0.1h0.1c0.1-0.1,0.3-0.3,0.8-0.5c0-0.1,0.1-0.2,0.2-0.2c1,0,1.6,0.1,1.6,0.3l0,0.1
		c-0.1,0-0.1,0-0.1,0.1c0.2,0,0.4,0.1,0.4,0.1l0.2-0.1h0.3c0.2,0,0.3,0.1,0.4,0.3c0,0-0.1,0.1-0.2,0.2c0.1,0.1,0.1,0.2,0.1,0.3h0.6
		c1.2,0.2,1.8,0.3,2,0.3v0.1l-0.3,0.1h-1.7c-0.5,0-0.9,0.1-1.2,0.4l-0.1-0.1h-0.1c0,0.3-0.5,0.5-1.4,0.6c-0.1,0.1-0.2,0.2-0.2,0.2
		c0,0.1,0,0.1,0,0.2h-0.1l-0.3,0.1c-0.2,0-0.6,0-1.3-0.1c-0.8,0-1.3,0.2-1.5,0.5c-0.2,0.1-0.5,0.2-0.9,0.2h-0.2
		c-0.4,0.5-0.5,1-0.5,1.6c0,0.2-0.2,0.5-0.5,0.8c0,0.4-0.3,0.9-0.7,1.6c-0.2,0.4-0.2,0.7-0.2,1v0.4c0.6,0.2,1,0.3,1,0.4h0.2
		c0-0.1,0.2-0.3,0.5-0.4l0.1-0.3h0.8l0.5-0.1c0.2,0.3,0.3,0.4,0.4,0.4c0.2-0.1,0.3-0.1,0.4-0.1h0.1c0.2,0,0.3,0.1,0.3,0.2v0.1
		l-0.1,0.2v0.1c0,0.1,0.6,0.2,1.8,0.3c0,0,0,0.1,0,0.1c0.2,0,0.3-0.1,0.4-0.1h0.4v0.1c-1.4,0.2-2.3,0.3-2.5,0.4
		c0,0.1-0.2,0.2-0.5,0.3c0,0.2-0.2,0.4-0.7,0.5c-0.4,0.1-0.7,0.2-0.8,0.4c0,0.1,0,0.1,0,0.2c-0.1,0.1-0.3,0.2-0.6,0.2h-0.1
		c-0.2,0-0.4,0-0.6-0.1c-1,0.1-1.5,0.3-1.5,0.5l-0.4,0.1l-0.1-0.1c-0.3,0-0.6,0.2-0.7,0.5c0,0.1-0.2,0.5-0.6,1.4
		c-0.2,0.9-0.5,1.5-0.9,1.8c-0.1,0-0.1,0.2-0.2,0.5c-0.2,0-0.4,0.2-0.5,0.7c-0.1,0-0.2,0.1-0.3,0.4l0,0.3v0.4c1-0.1,1.5-0.2,1.5-0.4
		c0.1-0.1,0.3-0.2,0.5-0.2c0.1,0,0.2,0,0.5,0.1c0,0.1,0,0.2,0.1,0.2V45c0,0,0.1,0,0.4,0.1c0.1,0,0.9-0.3,2.2-0.8l2.5-0.5l2.4,0.3
		h0.1c0.1-0.2,0.4-0.4,1.1-0.5c0.1-0.2,0.4-0.4,0.8-0.4h0.4c1.1,0,1.7,0.1,1.7,0.4c-0.1,0-0.1,0-0.1,0.1c0.1,0,0.2,0,0.3,0.1
		c0.4,0,0.7-0.1,0.9-0.1c0.2,0,0.4,0.1,0.5,0.3l-0.3,0.3v0.1c0,0.1,0.2,0.2,0.5,0.3c0.5,0,0.8-0.1,0.9-0.1c0.5,0,0.9,0.1,1.3,0.4h0
		c0.3,0,0.5-0.1,0.7-0.1l0,0.1c-0.2,0-0.4,0.1-0.4,0.1c-0.2,0-0.3-0.1-0.4-0.1c-0.6,0-1.2,0-1.9-0.1c-0.3,0-0.7,0.1-1,0.1
		c-0.4,0.2-0.7,0.4-0.8,0.4h0v-0.1c0.1,0,0.2-0.1,0.2-0.2h-0.2c0,0.2-0.8,0.4-2.5,0.7v0.1c0.1,0,0.2,0,0.2,0.1v0.1
		c-0.6,0-1.9,0.2-3.8,0.5c-0.4,0-0.6,0.1-0.6,0.3c-0.7,0.4-1.3,0.6-1.9,0.6l-0.3-0.1c-1.8,0.4-3,0.7-3.6,0.9c0,0-0.3,0.1-0.9,0.3
		c-0.4,0.2-0.7,0.3-0.9,0.3h-0.5c-0.1,0-0.2,0.1-0.3,0.3h-0.6c-0.4,0-0.6,0.2-0.6,0.5l-0.3,0.4h0c-0.1,0-0.1-0.1-0.1-0.3h-0.1
		c-0.3,0-0.5,0.5-0.6,1.4l-0.5,1c-0.1,0-0.2,0.3-0.4,1l-0.1,0.1h0v-0.2c0.2-0.9,0.5-1.9,0.9-3c0-0.2,0-0.4,0-0.5v-0.5
		c-1.2-0.2-1.8-0.5-1.8-0.7c0,0-0.1-0.1-0.1-0.2V48c0-0.2,0-0.3-0.1-0.4l-0.2,0.1h-0.5v-0.1c0-0.1,0.2-0.1,0.7-0.3
		c0-0.1,0-0.1,0.1-0.1v-0.1c-0.8-0.1-1.4-0.2-1.8-0.4v-0.1c1.2,0,2.6-0.4,4.1-1.2c0.3-1,0.7-1.9,1.1-2.8c0.1-0.4,0.2-0.9,0.5-1.5
		v-0.9c0.2-0.6,0.3-1,0.3-1.1v-0.1c0-0.1-0.3-0.5-0.9-1v-0.2c0-0.2,0-0.5,0-0.9c-0.2-0.1-0.4-0.2-0.4-0.3v-0.1h0.4
		c0-0.1,0-0.1,0.1-0.2c-0.2-0.3-0.6-0.6-1.1-0.8v-0.2h0.3c0.3,0.2,0.8,0.4,1.6,0.4c0.1,0,0.6,0,1.3-0.1c0.2-0.6,0.3-1,0.3-1.3v-0.1
		h0c-0.3,0.3-0.5,0.5-0.5,0.5v-0.2c0.7-0.9,1.1-1.8,1.1-2.6h-0.4c0,0,0-0.1,0-0.1c-0.3,0-0.7-0.1-1.1-0.4c-0.7-0.1-1.1-0.4-1.1-0.9
		c-0.1-0.3-0.1-0.4-0.1-0.5h-0.1c-0.1,0-0.1,0-0.2,0.1c-0.1,0-0.1-0.1-0.2-0.1v-0.1c0.3-0.2,0.5-0.4,0.5-0.4
		c-0.4-0.1-0.7-0.2-0.9-0.2h-0.4l-0.2-0.1c0-0.1,0.3-0.2,0.8-0.2c0-0.1,0.3-0.2,0.8-0.3c0.8-0.6,1.4-0.9,1.8-0.9
		c0.1,0,0.3,0.1,0.5,0.2c0.9,0,1.5-0.2,1.8-0.5c0.3-0.2,0.4-0.4,0.4-0.6h0.3l0.3,0.5h0.1c0.1-0.6,0.3-0.8,0.5-0.8
		c0.1,0.1,0.2,0.2,0.3,0.2l0-0.1v-0.3C354.7,26.5,354.8,26.5,354.9,26.5z M342.9,48.2h0.2c0.2,0,0.3,0.1,0.4,0.2v0.2
		c-0.1,0.2-0.2,0.3-0.4,0.3h-0.1c0-0.1,0-0.2-0.1-0.4C342.9,48.4,342.9,48.3,342.9,48.2z M345.6,46.2L345.6,46.2l0.2,0.1v-0.1
		c-0.1,0-0.1,0-0.1-0.1C345.7,46.2,345.7,46.2,345.6,46.2z M345.9,29.9L345.9,29.9c0.2,0,0.2,0,0.2,0.1v0.2c0,0.1,0,0.1-0.1,0.1
		h-0.1l0-0.3C345.8,30,345.8,29.9,345.9,29.9z M345.9,35.5L345.9,35.5c0.1,0,0.2,0.1,0.2,0.2v0.1c0,0.1,0,0.1-0.1,0.1H346
		c-0.1,0-0.1,0-0.1-0.1L345.9,35.5z M346.6,37.1c0.4,0,0.5,0.1,0.5,0.4c0,0-0.1,0.1-0.3,0.3c-0.2,0-0.3-0.1-0.3-0.3L346.6,37.1z
		 M347.3,30.9c0.1,0,0.2,0.1,0.2,0.2v0.2c-0.1,0.2-0.2,0.4-0.4,0.4h0c-0.1,0-0.1-0.1-0.2-0.3C346.9,31,347.1,30.9,347.3,30.9z
		 M348.9,28.8c0,0,0,0.1,0,0.2h0.1C348.9,28.9,348.9,28.9,348.9,28.8L348.9,28.8z M348.9,36c0,0.1,0,0.1,0.1,0.1L348.9,36L348.9,36z
		 M352.5,39.2L352.5,39.2L352.5,39.2c0.1,0,0.2,0,0.2,0v-0.1h0C352.6,39.2,352.6,39.2,352.5,39.2z M352.6,48.1L352.6,48.1
		L352.6,48.1L352.6,48.1L352.6,48.1z M353.2,25.9h0.3c0.2,0.2,0.3,0.4,0.3,0.6l-0.1,0.4c-0.3,0-0.5-0.2-0.6-0.7v-0.1
		C353,26,353.1,26,353.2,25.9z M353.8,27.5v0.1h0.1L353.8,27.5L353.8,27.5z M354.7,25.3h0.1c0,0.1,0,0.1,0.1,0.2v0.2l-0.2,0.1h-0.1
		c0-0.1,0-0.1,0-0.2C354.6,25.3,354.7,25.3,354.7,25.3z M355.4,26L355.4,26c0.1,0,0.1,0.1,0.2,0.2v0.1c0,0.1,0,0.1-0.1,0.1h-0.1
		c-0.1,0-0.1,0-0.1-0.1v-0.2C355.3,26.1,355.3,26,355.4,26z M357.3,37.8L357.3,37.8l0,0.1h0V37.8z M361.4,29.3L361.4,29.3
		L361.4,29.3c0,0.1,0,0.2,0,0.2h0v-0.1C361.3,29.4,361.3,29.3,361.4,29.3z M363.4,44.5L363.4,44.5l0.1,0.1v-0.1H363.4z"/>
</g>
</svg>
